<mxfile host="Electron" modified="2024-03-22T21:10:12.486Z" agent="Mozilla/5.0 (Macintosh; Intel Mac OS X 10_15_7) AppleWebKit/537.36 (KHTML, like Gecko) draw.io/24.0.4 Chrome/120.0.6099.109 Electron/28.1.0 Safari/537.36" etag="HnLfBGFywTUPLkIsGNtB" version="24.0.4" type="device" pages="4">
  <diagram name="Tensor FiberTree" id="dGir3j_XE4BajIroIbQb">
    <mxGraphModel dx="2049" dy="2146" grid="1" gridSize="10" guides="0" tooltips="1" connect="1" arrows="1" fold="1" page="1" pageScale="1" pageWidth="1100" pageHeight="850" math="0" shadow="0">
      <root>
        <mxCell id="rejoIrjV7qq8w0lhNhuF-0" />
        <mxCell id="rejoIrjV7qq8w0lhNhuF-1" parent="rejoIrjV7qq8w0lhNhuF-0" />
        <mxCell id="mfYFQkmdiGB7j5h1LvPK-116" value="" style="rounded=0;whiteSpace=wrap;html=1;fillColor=#dae8fc;strokeColor=#6c8ebf;fontSize=24;labelBackgroundColor=#dae8fc;" vertex="1" parent="rejoIrjV7qq8w0lhNhuF-1">
          <mxGeometry x="360" y="50" width="480" height="180" as="geometry" />
        </mxCell>
        <mxCell id="mfYFQkmdiGB7j5h1LvPK-79" value="" style="rounded=0;whiteSpace=wrap;html=1;fillColor=#dae8fc;strokeColor=#6c8ebf;fontSize=24;labelBackgroundColor=#dae8fc;" vertex="1" parent="rejoIrjV7qq8w0lhNhuF-1">
          <mxGeometry x="360" y="330" width="1160" height="180" as="geometry" />
        </mxCell>
        <mxCell id="mfYFQkmdiGB7j5h1LvPK-41" value="" style="rounded=0;whiteSpace=wrap;html=1;fillColor=#dae8fc;strokeColor=#6c8ebf;fontSize=24;labelBackgroundColor=#dae8fc;" vertex="1" parent="rejoIrjV7qq8w0lhNhuF-1">
          <mxGeometry x="360" y="900" width="1060" height="80" as="geometry" />
        </mxCell>
        <mxCell id="0q4akOGvsak3oRoGHmfl-1" value="" style="rounded=0;whiteSpace=wrap;html=1;fillColor=#dae8fc;strokeColor=#6c8ebf;fontSize=24;labelBackgroundColor=#dae8fc;" vertex="1" parent="rejoIrjV7qq8w0lhNhuF-1">
          <mxGeometry x="360" y="620" width="1160" height="150" as="geometry" />
        </mxCell>
        <mxCell id="rejoIrjV7qq8w0lhNhuF-3" value="" style="rounded=0;whiteSpace=wrap;html=1;fontSize=24;container=0;" vertex="1" parent="rejoIrjV7qq8w0lhNhuF-1">
          <mxGeometry x="370" y="400" width="370" height="100" as="geometry" />
        </mxCell>
        <mxCell id="lkhGQzZS0AMf5QW9-wwf-9" style="edgeStyle=orthogonalEdgeStyle;rounded=0;orthogonalLoop=1;jettySize=auto;html=1;exitX=0.5;exitY=1;exitDx=0;exitDy=0;" edge="1" parent="rejoIrjV7qq8w0lhNhuF-1" source="rejoIrjV7qq8w0lhNhuF-5" target="lkhGQzZS0AMf5QW9-wwf-5">
          <mxGeometry relative="1" as="geometry" />
        </mxCell>
        <mxCell id="rejoIrjV7qq8w0lhNhuF-5" value="" style="whiteSpace=wrap;html=1;aspect=fixed;fontSize=24;container=0;" vertex="1" parent="rejoIrjV7qq8w0lhNhuF-1">
          <mxGeometry x="470" y="410" width="80" height="80" as="geometry" />
        </mxCell>
        <mxCell id="rejoIrjV7qq8w0lhNhuF-11" value="" style="whiteSpace=wrap;html=1;aspect=fixed;fontSize=24;container=0;" vertex="1" parent="rejoIrjV7qq8w0lhNhuF-1">
          <mxGeometry x="650" y="410" width="80" height="80" as="geometry" />
        </mxCell>
        <mxCell id="rejoIrjV7qq8w0lhNhuF-12" value="Dense Level" style="whiteSpace=wrap;html=1;fontSize=24;container=0;" vertex="1" parent="rejoIrjV7qq8w0lhNhuF-1">
          <mxGeometry x="40" y="620" width="280" height="150" as="geometry" />
        </mxCell>
        <mxCell id="rejoIrjV7qq8w0lhNhuF-53" value="&amp;nbsp;j&amp;nbsp;" style="shape=crossbar;whiteSpace=wrap;html=1;rounded=1;labelBackgroundColor=#dae8fc;fontSize=25;container=0;" vertex="1" parent="rejoIrjV7qq8w0lhNhuF-1">
          <mxGeometry x="371.5" y="340" width="370" height="30" as="geometry" />
        </mxCell>
        <mxCell id="rejoIrjV7qq8w0lhNhuF-54" value="2" style="text;html=1;align=center;verticalAlign=middle;resizable=1;points=[];autosize=1;strokeColor=none;fillColor=none;fontSize=18;movable=1;rotatable=1;deletable=1;editable=1;locked=0;connectable=1;" vertex="1" parent="rejoIrjV7qq8w0lhNhuF-1">
          <mxGeometry x="481.5" y="370" width="50" height="40" as="geometry" />
        </mxCell>
        <mxCell id="rejoIrjV7qq8w0lhNhuF-55" value="1" style="text;html=1;align=center;verticalAlign=middle;resizable=1;points=[];autosize=1;strokeColor=none;fillColor=none;fontSize=18;movable=1;rotatable=1;deletable=1;editable=1;locked=0;connectable=1;" vertex="1" parent="rejoIrjV7qq8w0lhNhuF-1">
          <mxGeometry x="391.5" y="370" width="56.36" height="40" as="geometry" />
        </mxCell>
        <mxCell id="rejoIrjV7qq8w0lhNhuF-56" value="3" style="text;html=1;align=center;verticalAlign=middle;resizable=1;points=[];autosize=1;strokeColor=none;fillColor=none;fontSize=18;movable=1;rotatable=1;deletable=1;editable=1;locked=0;connectable=1;" vertex="1" parent="rejoIrjV7qq8w0lhNhuF-1">
          <mxGeometry x="571.5" y="370" width="60" height="40" as="geometry" />
        </mxCell>
        <mxCell id="rejoIrjV7qq8w0lhNhuF-57" value="4" style="text;html=1;align=center;verticalAlign=middle;resizable=1;points=[];autosize=1;strokeColor=none;fillColor=none;fontSize=18;movable=1;rotatable=1;deletable=1;editable=1;locked=0;connectable=1;" vertex="1" parent="rejoIrjV7qq8w0lhNhuF-1">
          <mxGeometry x="676.5" y="370" width="30" height="40" as="geometry" />
        </mxCell>
        <mxCell id="0q4akOGvsak3oRoGHmfl-2" value="0" style="whiteSpace=wrap;html=1;aspect=fixed;fontSize=24;fillColor=#dae8fc;strokeColor=#6c8ebf;" vertex="1" parent="rejoIrjV7qq8w0lhNhuF-1">
          <mxGeometry x="560" y="410" width="80" height="80" as="geometry" />
        </mxCell>
        <mxCell id="0q4akOGvsak3oRoGHmfl-3" value="0" style="whiteSpace=wrap;html=1;aspect=fixed;fontSize=24;fillColor=#dae8fc;strokeColor=#6c8ebf;" vertex="1" parent="rejoIrjV7qq8w0lhNhuF-1">
          <mxGeometry x="381.5" y="410" width="80" height="80" as="geometry" />
        </mxCell>
        <mxCell id="rejoIrjV7qq8w0lhNhuF-14" value="" style="rounded=0;whiteSpace=wrap;html=1;fontSize=24;" vertex="1" parent="rejoIrjV7qq8w0lhNhuF-1">
          <mxGeometry x="1060" y="680" width="220" height="80" as="geometry" />
        </mxCell>
        <mxCell id="mfYFQkmdiGB7j5h1LvPK-74" style="edgeStyle=orthogonalEdgeStyle;rounded=0;orthogonalLoop=1;jettySize=auto;html=1;exitX=0.5;exitY=1;exitDx=0;exitDy=0;" edge="1" parent="rejoIrjV7qq8w0lhNhuF-1" source="rejoIrjV7qq8w0lhNhuF-15" target="mfYFQkmdiGB7j5h1LvPK-52">
          <mxGeometry relative="1" as="geometry">
            <Array as="points">
              <mxPoint x="1169" y="790" />
              <mxPoint x="1100" y="790" />
            </Array>
          </mxGeometry>
        </mxCell>
        <mxCell id="rejoIrjV7qq8w0lhNhuF-15" value="11.1" style="whiteSpace=wrap;html=1;aspect=fixed;fontSize=24;" vertex="1" parent="rejoIrjV7qq8w0lhNhuF-1">
          <mxGeometry x="1139" y="690" width="60" height="60" as="geometry" />
        </mxCell>
        <mxCell id="mfYFQkmdiGB7j5h1LvPK-73" style="edgeStyle=orthogonalEdgeStyle;rounded=0;orthogonalLoop=1;jettySize=auto;html=1;exitX=0.5;exitY=1;exitDx=0;exitDy=0;" edge="1" parent="rejoIrjV7qq8w0lhNhuF-1" source="rejoIrjV7qq8w0lhNhuF-16" target="mfYFQkmdiGB7j5h1LvPK-51">
          <mxGeometry relative="1" as="geometry">
            <Array as="points">
              <mxPoint x="1100" y="780" />
              <mxPoint x="1030" y="780" />
            </Array>
          </mxGeometry>
        </mxCell>
        <mxCell id="rejoIrjV7qq8w0lhNhuF-16" value="10.0" style="whiteSpace=wrap;html=1;aspect=fixed;fontSize=24;" vertex="1" parent="rejoIrjV7qq8w0lhNhuF-1">
          <mxGeometry x="1070" y="690" width="60" height="60" as="geometry" />
        </mxCell>
        <mxCell id="mfYFQkmdiGB7j5h1LvPK-75" style="edgeStyle=orthogonalEdgeStyle;rounded=0;orthogonalLoop=1;jettySize=auto;html=1;exitX=0.5;exitY=1;exitDx=0;exitDy=0;" edge="1" parent="rejoIrjV7qq8w0lhNhuF-1" source="rejoIrjV7qq8w0lhNhuF-17" target="mfYFQkmdiGB7j5h1LvPK-53">
          <mxGeometry relative="1" as="geometry">
            <Array as="points">
              <mxPoint x="1240" y="800" />
              <mxPoint x="1170" y="800" />
            </Array>
          </mxGeometry>
        </mxCell>
        <mxCell id="rejoIrjV7qq8w0lhNhuF-17" value="12.2" style="whiteSpace=wrap;html=1;aspect=fixed;fontSize=24;" vertex="1" parent="rejoIrjV7qq8w0lhNhuF-1">
          <mxGeometry x="1210" y="690" width="60" height="60" as="geometry" />
        </mxCell>
        <mxCell id="rejoIrjV7qq8w0lhNhuF-19" value="" style="rounded=0;whiteSpace=wrap;html=1;fontSize=24;" vertex="1" parent="rejoIrjV7qq8w0lhNhuF-1">
          <mxGeometry x="830" y="680" width="220" height="80" as="geometry" />
        </mxCell>
        <mxCell id="mfYFQkmdiGB7j5h1LvPK-70" style="edgeStyle=orthogonalEdgeStyle;rounded=0;orthogonalLoop=1;jettySize=auto;html=1;exitX=0.5;exitY=1;exitDx=0;exitDy=0;" edge="1" parent="rejoIrjV7qq8w0lhNhuF-1" source="rejoIrjV7qq8w0lhNhuF-20" target="mfYFQkmdiGB7j5h1LvPK-48">
          <mxGeometry relative="1" as="geometry">
            <Array as="points">
              <mxPoint x="870" y="780" />
              <mxPoint x="820" y="780" />
            </Array>
          </mxGeometry>
        </mxCell>
        <mxCell id="rejoIrjV7qq8w0lhNhuF-20" value="7.7" style="whiteSpace=wrap;html=1;aspect=fixed;fontSize=24;" vertex="1" parent="rejoIrjV7qq8w0lhNhuF-1">
          <mxGeometry x="840" y="690" width="60" height="60" as="geometry" />
        </mxCell>
        <mxCell id="mfYFQkmdiGB7j5h1LvPK-71" style="edgeStyle=orthogonalEdgeStyle;rounded=0;orthogonalLoop=1;jettySize=auto;html=1;exitX=0.5;exitY=1;exitDx=0;exitDy=0;" edge="1" parent="rejoIrjV7qq8w0lhNhuF-1" source="rejoIrjV7qq8w0lhNhuF-21" target="mfYFQkmdiGB7j5h1LvPK-49">
          <mxGeometry relative="1" as="geometry">
            <Array as="points">
              <mxPoint x="939" y="780" />
              <mxPoint x="890" y="780" />
            </Array>
          </mxGeometry>
        </mxCell>
        <mxCell id="rejoIrjV7qq8w0lhNhuF-21" value="8.8" style="whiteSpace=wrap;html=1;aspect=fixed;fontSize=24;" vertex="1" parent="rejoIrjV7qq8w0lhNhuF-1">
          <mxGeometry x="909" y="690" width="60" height="60" as="geometry" />
        </mxCell>
        <mxCell id="mfYFQkmdiGB7j5h1LvPK-72" style="edgeStyle=orthogonalEdgeStyle;rounded=0;orthogonalLoop=1;jettySize=auto;html=1;exitX=0.5;exitY=1;exitDx=0;exitDy=0;" edge="1" parent="rejoIrjV7qq8w0lhNhuF-1" source="rejoIrjV7qq8w0lhNhuF-22" target="mfYFQkmdiGB7j5h1LvPK-50">
          <mxGeometry relative="1" as="geometry">
            <Array as="points">
              <mxPoint x="1010" y="780" />
              <mxPoint x="960" y="780" />
            </Array>
          </mxGeometry>
        </mxCell>
        <mxCell id="rejoIrjV7qq8w0lhNhuF-22" value="9.9" style="whiteSpace=wrap;html=1;aspect=fixed;fontSize=24;" vertex="1" parent="rejoIrjV7qq8w0lhNhuF-1">
          <mxGeometry x="980" y="690" width="60" height="60" as="geometry" />
        </mxCell>
        <mxCell id="rejoIrjV7qq8w0lhNhuF-24" value="" style="rounded=0;whiteSpace=wrap;html=1;fontSize=24;" vertex="1" parent="rejoIrjV7qq8w0lhNhuF-1">
          <mxGeometry x="600" y="680" width="220" height="80" as="geometry" />
        </mxCell>
        <mxCell id="mfYFQkmdiGB7j5h1LvPK-67" style="edgeStyle=orthogonalEdgeStyle;rounded=0;orthogonalLoop=1;jettySize=auto;html=1;exitX=0.5;exitY=1;exitDx=0;exitDy=0;" edge="1" parent="rejoIrjV7qq8w0lhNhuF-1" source="rejoIrjV7qq8w0lhNhuF-25" target="mfYFQkmdiGB7j5h1LvPK-45">
          <mxGeometry relative="1" as="geometry">
            <Array as="points">
              <mxPoint x="640" y="780" />
              <mxPoint x="610" y="780" />
            </Array>
          </mxGeometry>
        </mxCell>
        <mxCell id="rejoIrjV7qq8w0lhNhuF-25" value="4.4" style="whiteSpace=wrap;html=1;aspect=fixed;fontSize=24;labelBackgroundColor=none;" vertex="1" parent="rejoIrjV7qq8w0lhNhuF-1">
          <mxGeometry x="610" y="690" width="60" height="60" as="geometry" />
        </mxCell>
        <mxCell id="mfYFQkmdiGB7j5h1LvPK-68" style="edgeStyle=orthogonalEdgeStyle;rounded=0;orthogonalLoop=1;jettySize=auto;html=1;exitX=0.5;exitY=1;exitDx=0;exitDy=0;" edge="1" parent="rejoIrjV7qq8w0lhNhuF-1" source="rejoIrjV7qq8w0lhNhuF-26" target="mfYFQkmdiGB7j5h1LvPK-46">
          <mxGeometry relative="1" as="geometry">
            <Array as="points">
              <mxPoint x="709" y="780" />
              <mxPoint x="680" y="780" />
            </Array>
          </mxGeometry>
        </mxCell>
        <mxCell id="rejoIrjV7qq8w0lhNhuF-26" value="&lt;span style=&quot;color: rgb(0, 0, 0); font-family: Helvetica; font-size: 24px; font-style: normal; font-variant-ligatures: normal; font-variant-caps: normal; font-weight: 400; letter-spacing: normal; orphans: 2; text-align: center; text-indent: 0px; text-transform: none; widows: 2; word-spacing: 0px; -webkit-text-stroke-width: 0px; text-decoration-thickness: initial; text-decoration-style: initial; text-decoration-color: initial; float: none; display: inline !important;&quot;&gt;5.5&lt;/span&gt;" style="whiteSpace=wrap;html=1;aspect=fixed;fontSize=24;labelBackgroundColor=none;" vertex="1" parent="rejoIrjV7qq8w0lhNhuF-1">
          <mxGeometry x="679" y="690" width="60" height="60" as="geometry" />
        </mxCell>
        <mxCell id="mfYFQkmdiGB7j5h1LvPK-69" style="edgeStyle=orthogonalEdgeStyle;rounded=0;orthogonalLoop=1;jettySize=auto;html=1;exitX=0.5;exitY=1;exitDx=0;exitDy=0;" edge="1" parent="rejoIrjV7qq8w0lhNhuF-1" source="rejoIrjV7qq8w0lhNhuF-27" target="mfYFQkmdiGB7j5h1LvPK-47">
          <mxGeometry relative="1" as="geometry">
            <Array as="points">
              <mxPoint x="780" y="780" />
              <mxPoint x="750" y="780" />
            </Array>
          </mxGeometry>
        </mxCell>
        <mxCell id="rejoIrjV7qq8w0lhNhuF-27" value="&lt;span style=&quot;color: rgb(0, 0, 0); font-family: Helvetica; font-size: 24px; font-style: normal; font-variant-ligatures: normal; font-variant-caps: normal; font-weight: 400; letter-spacing: normal; orphans: 2; text-align: center; text-indent: 0px; text-transform: none; widows: 2; word-spacing: 0px; -webkit-text-stroke-width: 0px; background-color: rgb(251, 251, 251); text-decoration-thickness: initial; text-decoration-style: initial; text-decoration-color: initial; float: none; display: inline !important;&quot;&gt;6.6&lt;/span&gt;" style="whiteSpace=wrap;html=1;aspect=fixed;fontSize=24;" vertex="1" parent="rejoIrjV7qq8w0lhNhuF-1">
          <mxGeometry x="750" y="690" width="60" height="60" as="geometry" />
        </mxCell>
        <mxCell id="rejoIrjV7qq8w0lhNhuF-29" value="" style="rounded=0;whiteSpace=wrap;html=1;fontSize=24;" vertex="1" parent="rejoIrjV7qq8w0lhNhuF-1">
          <mxGeometry x="370" y="680" width="220" height="80" as="geometry" />
        </mxCell>
        <mxCell id="mfYFQkmdiGB7j5h1LvPK-65" style="edgeStyle=orthogonalEdgeStyle;rounded=0;orthogonalLoop=1;jettySize=auto;html=1;exitX=0.5;exitY=1;exitDx=0;exitDy=0;" edge="1" parent="rejoIrjV7qq8w0lhNhuF-1" source="rejoIrjV7qq8w0lhNhuF-30" target="mfYFQkmdiGB7j5h1LvPK-43">
          <mxGeometry relative="1" as="geometry">
            <Array as="points">
              <mxPoint x="480" y="780" />
              <mxPoint x="470" y="780" />
            </Array>
          </mxGeometry>
        </mxCell>
        <mxCell id="rejoIrjV7qq8w0lhNhuF-30" value="2.2" style="whiteSpace=wrap;html=1;aspect=fixed;fontSize=24;" vertex="1" parent="rejoIrjV7qq8w0lhNhuF-1">
          <mxGeometry x="450" y="690" width="60" height="60" as="geometry" />
        </mxCell>
        <mxCell id="mfYFQkmdiGB7j5h1LvPK-64" style="edgeStyle=orthogonalEdgeStyle;rounded=0;orthogonalLoop=1;jettySize=auto;html=1;exitX=0.5;exitY=1;exitDx=0;exitDy=0;" edge="1" parent="rejoIrjV7qq8w0lhNhuF-1" source="rejoIrjV7qq8w0lhNhuF-31" target="mfYFQkmdiGB7j5h1LvPK-42">
          <mxGeometry relative="1" as="geometry">
            <Array as="points">
              <mxPoint x="410" y="780" />
              <mxPoint x="400" y="780" />
            </Array>
          </mxGeometry>
        </mxCell>
        <mxCell id="rejoIrjV7qq8w0lhNhuF-31" value="1.1" style="whiteSpace=wrap;html=1;aspect=fixed;fontSize=24;" vertex="1" parent="rejoIrjV7qq8w0lhNhuF-1">
          <mxGeometry x="380" y="690" width="60" height="60" as="geometry" />
        </mxCell>
        <mxCell id="mfYFQkmdiGB7j5h1LvPK-66" style="edgeStyle=orthogonalEdgeStyle;rounded=0;orthogonalLoop=1;jettySize=auto;html=1;exitX=0.5;exitY=1;exitDx=0;exitDy=0;" edge="1" parent="rejoIrjV7qq8w0lhNhuF-1" source="rejoIrjV7qq8w0lhNhuF-32" target="mfYFQkmdiGB7j5h1LvPK-44">
          <mxGeometry relative="1" as="geometry">
            <Array as="points">
              <mxPoint x="550" y="780" />
              <mxPoint x="540" y="780" />
            </Array>
          </mxGeometry>
        </mxCell>
        <mxCell id="rejoIrjV7qq8w0lhNhuF-32" value="&lt;span style=&quot;color: rgb(0, 0, 0); font-family: Helvetica; font-size: 24px; font-style: normal; font-variant-ligatures: normal; font-variant-caps: normal; font-weight: 400; letter-spacing: normal; orphans: 2; text-align: center; text-indent: 0px; text-transform: none; widows: 2; word-spacing: 0px; -webkit-text-stroke-width: 0px; background-color: rgb(251, 251, 251); text-decoration-thickness: initial; text-decoration-style: initial; text-decoration-color: initial; float: none; display: inline !important;&quot;&gt;3.3&lt;/span&gt;" style="whiteSpace=wrap;html=1;aspect=fixed;fontSize=24;" vertex="1" parent="rejoIrjV7qq8w0lhNhuF-1">
          <mxGeometry x="520" y="690" width="60" height="60" as="geometry" />
        </mxCell>
        <mxCell id="lkhGQzZS0AMf5QW9-wwf-4" value="2" style="text;html=1;align=center;verticalAlign=middle;resizable=1;points=[];autosize=1;strokeColor=none;fillColor=none;fontSize=18;movable=1;rotatable=1;deletable=1;editable=1;locked=0;connectable=1;" vertex="1" parent="rejoIrjV7qq8w0lhNhuF-1">
          <mxGeometry x="695" y="590" width="30" height="40" as="geometry" />
        </mxCell>
        <mxCell id="lkhGQzZS0AMf5QW9-wwf-5" value="1" style="text;html=1;align=center;verticalAlign=middle;resizable=1;points=[];autosize=1;strokeColor=none;fillColor=none;fontSize=18;movable=1;rotatable=1;deletable=1;editable=1;locked=0;connectable=1;" vertex="1" parent="rejoIrjV7qq8w0lhNhuF-1">
          <mxGeometry x="450" y="580" width="56.36" height="60" as="geometry" />
        </mxCell>
        <mxCell id="lkhGQzZS0AMf5QW9-wwf-6" value="3" style="text;html=1;align=center;verticalAlign=middle;resizable=1;points=[];autosize=1;strokeColor=none;fillColor=none;fontSize=18;movable=1;rotatable=1;deletable=1;editable=1;locked=0;connectable=1;" vertex="1" parent="rejoIrjV7qq8w0lhNhuF-1">
          <mxGeometry x="900" y="580" width="70" height="60" as="geometry" />
        </mxCell>
        <mxCell id="lkhGQzZS0AMf5QW9-wwf-7" value="4" style="text;html=1;align=center;verticalAlign=middle;resizable=1;points=[];autosize=1;strokeColor=none;fillColor=none;fontSize=18;movable=1;rotatable=1;deletable=1;editable=1;locked=0;connectable=1;" vertex="1" parent="rejoIrjV7qq8w0lhNhuF-1">
          <mxGeometry x="1140" y="580" width="60" height="60" as="geometry" />
        </mxCell>
        <mxCell id="lkhGQzZS0AMf5QW9-wwf-10" style="edgeStyle=orthogonalEdgeStyle;rounded=0;orthogonalLoop=1;jettySize=auto;html=1;exitX=0.5;exitY=1;exitDx=0;exitDy=0;entryX=0.586;entryY=-0.157;entryDx=0;entryDy=0;entryPerimeter=0;" edge="1" parent="rejoIrjV7qq8w0lhNhuF-1" source="rejoIrjV7qq8w0lhNhuF-11" target="lkhGQzZS0AMf5QW9-wwf-4">
          <mxGeometry relative="1" as="geometry" />
        </mxCell>
        <mxCell id="lkhGQzZS0AMf5QW9-wwf-12" value="" style="rounded=0;whiteSpace=wrap;html=1;fontSize=24;container=0;" vertex="1" parent="rejoIrjV7qq8w0lhNhuF-1">
          <mxGeometry x="750" y="400" width="370" height="100" as="geometry" />
        </mxCell>
        <mxCell id="lkhGQzZS0AMf5QW9-wwf-22" style="edgeStyle=orthogonalEdgeStyle;rounded=0;orthogonalLoop=1;jettySize=auto;html=1;exitX=0.5;exitY=1;exitDx=0;exitDy=0;" edge="1" parent="rejoIrjV7qq8w0lhNhuF-1" source="lkhGQzZS0AMf5QW9-wwf-13" target="lkhGQzZS0AMf5QW9-wwf-6">
          <mxGeometry relative="1" as="geometry" />
        </mxCell>
        <mxCell id="lkhGQzZS0AMf5QW9-wwf-13" value="" style="whiteSpace=wrap;html=1;aspect=fixed;fontSize=24;container=0;" vertex="1" parent="rejoIrjV7qq8w0lhNhuF-1">
          <mxGeometry x="760" y="410" width="80" height="80" as="geometry" />
        </mxCell>
        <mxCell id="lkhGQzZS0AMf5QW9-wwf-14" value="" style="whiteSpace=wrap;html=1;aspect=fixed;fontSize=24;container=0;" vertex="1" parent="rejoIrjV7qq8w0lhNhuF-1">
          <mxGeometry x="1030" y="410" width="80" height="80" as="geometry" />
        </mxCell>
        <mxCell id="lkhGQzZS0AMf5QW9-wwf-15" value="&amp;nbsp;j&amp;nbsp;" style="shape=crossbar;whiteSpace=wrap;html=1;rounded=1;labelBackgroundColor=#dae8fc;fontSize=25;container=0;" vertex="1" parent="rejoIrjV7qq8w0lhNhuF-1">
          <mxGeometry x="751.5" y="340" width="370" height="30" as="geometry" />
        </mxCell>
        <mxCell id="lkhGQzZS0AMf5QW9-wwf-16" value="2" style="text;html=1;align=center;verticalAlign=middle;resizable=1;points=[];autosize=1;strokeColor=none;fillColor=none;fontSize=18;movable=1;rotatable=1;deletable=1;editable=1;locked=0;connectable=1;" vertex="1" parent="rejoIrjV7qq8w0lhNhuF-1">
          <mxGeometry x="861.5" y="370" width="50" height="40" as="geometry" />
        </mxCell>
        <mxCell id="lkhGQzZS0AMf5QW9-wwf-17" value="1" style="text;html=1;align=center;verticalAlign=middle;resizable=1;points=[];autosize=1;strokeColor=none;fillColor=none;fontSize=18;movable=1;rotatable=1;deletable=1;editable=1;locked=0;connectable=1;" vertex="1" parent="rejoIrjV7qq8w0lhNhuF-1">
          <mxGeometry x="771.5" y="370" width="56.36" height="40" as="geometry" />
        </mxCell>
        <mxCell id="lkhGQzZS0AMf5QW9-wwf-18" value="3" style="text;html=1;align=center;verticalAlign=middle;resizable=1;points=[];autosize=1;strokeColor=none;fillColor=none;fontSize=18;movable=1;rotatable=1;deletable=1;editable=1;locked=0;connectable=1;" vertex="1" parent="rejoIrjV7qq8w0lhNhuF-1">
          <mxGeometry x="951.5" y="370" width="60" height="40" as="geometry" />
        </mxCell>
        <mxCell id="lkhGQzZS0AMf5QW9-wwf-19" value="4" style="text;html=1;align=center;verticalAlign=middle;resizable=1;points=[];autosize=1;strokeColor=none;fillColor=none;fontSize=18;movable=1;rotatable=1;deletable=1;editable=1;locked=0;connectable=1;" vertex="1" parent="rejoIrjV7qq8w0lhNhuF-1">
          <mxGeometry x="1056.5" y="370" width="30" height="40" as="geometry" />
        </mxCell>
        <mxCell id="lkhGQzZS0AMf5QW9-wwf-20" value="0" style="whiteSpace=wrap;html=1;aspect=fixed;fontSize=24;fillColor=#dae8fc;strokeColor=#6c8ebf;" vertex="1" parent="rejoIrjV7qq8w0lhNhuF-1">
          <mxGeometry x="940" y="410" width="80" height="80" as="geometry" />
        </mxCell>
        <mxCell id="lkhGQzZS0AMf5QW9-wwf-21" value="0" style="whiteSpace=wrap;html=1;aspect=fixed;fontSize=24;fillColor=#dae8fc;strokeColor=#6c8ebf;" vertex="1" parent="rejoIrjV7qq8w0lhNhuF-1">
          <mxGeometry x="850" y="410" width="80" height="80" as="geometry" />
        </mxCell>
        <mxCell id="lkhGQzZS0AMf5QW9-wwf-23" style="edgeStyle=orthogonalEdgeStyle;rounded=0;orthogonalLoop=1;jettySize=auto;html=1;exitX=0.5;exitY=1;exitDx=0;exitDy=0;entryX=0.5;entryY=0;entryDx=0;entryDy=0;entryPerimeter=0;" edge="1" parent="rejoIrjV7qq8w0lhNhuF-1" source="lkhGQzZS0AMf5QW9-wwf-14" target="lkhGQzZS0AMf5QW9-wwf-7">
          <mxGeometry relative="1" as="geometry" />
        </mxCell>
        <mxCell id="0YQDP42LlHLJE5UTH5Np-0" value="" style="rounded=0;whiteSpace=wrap;html=1;fontSize=24;" vertex="1" parent="rejoIrjV7qq8w0lhNhuF-1">
          <mxGeometry x="1290" y="680" width="220" height="80" as="geometry" />
        </mxCell>
        <mxCell id="mfYFQkmdiGB7j5h1LvPK-77" style="edgeStyle=orthogonalEdgeStyle;rounded=0;orthogonalLoop=1;jettySize=auto;html=1;exitX=0.5;exitY=1;exitDx=0;exitDy=0;" edge="1" parent="rejoIrjV7qq8w0lhNhuF-1" source="0YQDP42LlHLJE5UTH5Np-1" target="mfYFQkmdiGB7j5h1LvPK-55">
          <mxGeometry relative="1" as="geometry">
            <Array as="points">
              <mxPoint x="1399" y="820" />
              <mxPoint x="1310" y="820" />
            </Array>
          </mxGeometry>
        </mxCell>
        <mxCell id="0YQDP42LlHLJE5UTH5Np-1" value="14.4" style="whiteSpace=wrap;html=1;aspect=fixed;fontSize=24;" vertex="1" parent="rejoIrjV7qq8w0lhNhuF-1">
          <mxGeometry x="1369" y="690" width="60" height="60" as="geometry" />
        </mxCell>
        <mxCell id="mfYFQkmdiGB7j5h1LvPK-76" style="edgeStyle=orthogonalEdgeStyle;rounded=0;orthogonalLoop=1;jettySize=auto;html=1;exitX=0.5;exitY=1;exitDx=0;exitDy=0;" edge="1" parent="rejoIrjV7qq8w0lhNhuF-1" source="0YQDP42LlHLJE5UTH5Np-2" target="mfYFQkmdiGB7j5h1LvPK-54">
          <mxGeometry relative="1" as="geometry">
            <Array as="points">
              <mxPoint x="1330" y="810" />
              <mxPoint x="1240" y="810" />
            </Array>
          </mxGeometry>
        </mxCell>
        <mxCell id="0YQDP42LlHLJE5UTH5Np-2" value="13.3" style="whiteSpace=wrap;html=1;aspect=fixed;fontSize=24;" vertex="1" parent="rejoIrjV7qq8w0lhNhuF-1">
          <mxGeometry x="1300" y="690" width="60" height="60" as="geometry" />
        </mxCell>
        <mxCell id="mfYFQkmdiGB7j5h1LvPK-78" style="edgeStyle=orthogonalEdgeStyle;rounded=0;orthogonalLoop=1;jettySize=auto;html=1;exitX=0.5;exitY=1;exitDx=0;exitDy=0;" edge="1" parent="rejoIrjV7qq8w0lhNhuF-1" source="0YQDP42LlHLJE5UTH5Np-3" target="mfYFQkmdiGB7j5h1LvPK-56">
          <mxGeometry relative="1" as="geometry">
            <Array as="points">
              <mxPoint x="1470" y="830" />
              <mxPoint x="1380" y="830" />
            </Array>
          </mxGeometry>
        </mxCell>
        <mxCell id="0YQDP42LlHLJE5UTH5Np-3" value="15.5" style="whiteSpace=wrap;html=1;aspect=fixed;fontSize=24;" vertex="1" parent="rejoIrjV7qq8w0lhNhuF-1">
          <mxGeometry x="1440" y="690" width="60" height="60" as="geometry" />
        </mxCell>
        <mxCell id="0YQDP42LlHLJE5UTH5Np-4" value="5" style="text;html=1;align=center;verticalAlign=middle;resizable=1;points=[];autosize=1;strokeColor=none;fillColor=none;fontSize=18;movable=1;rotatable=1;deletable=1;editable=1;locked=0;connectable=1;" vertex="1" parent="rejoIrjV7qq8w0lhNhuF-1">
          <mxGeometry x="1385" y="580" width="30" height="60" as="geometry" />
        </mxCell>
        <mxCell id="0YQDP42LlHLJE5UTH5Np-5" value="" style="rounded=0;whiteSpace=wrap;html=1;fontSize=24;container=0;" vertex="1" parent="rejoIrjV7qq8w0lhNhuF-1">
          <mxGeometry x="1130" y="400" width="370" height="100" as="geometry" />
        </mxCell>
        <mxCell id="0YQDP42LlHLJE5UTH5Np-16" style="edgeStyle=orthogonalEdgeStyle;rounded=0;orthogonalLoop=1;jettySize=auto;html=1;exitX=0.5;exitY=1;exitDx=0;exitDy=0;" edge="1" parent="rejoIrjV7qq8w0lhNhuF-1" source="0YQDP42LlHLJE5UTH5Np-7" target="0YQDP42LlHLJE5UTH5Np-4">
          <mxGeometry relative="1" as="geometry" />
        </mxCell>
        <mxCell id="0YQDP42LlHLJE5UTH5Np-7" value="" style="whiteSpace=wrap;html=1;aspect=fixed;fontSize=24;container=0;" vertex="1" parent="rejoIrjV7qq8w0lhNhuF-1">
          <mxGeometry x="1320" y="410" width="80" height="80" as="geometry" />
        </mxCell>
        <mxCell id="0YQDP42LlHLJE5UTH5Np-8" value="&amp;nbsp;j&amp;nbsp;" style="shape=crossbar;whiteSpace=wrap;html=1;rounded=1;labelBackgroundColor=#dae8fc;fontSize=25;container=0;" vertex="1" parent="rejoIrjV7qq8w0lhNhuF-1">
          <mxGeometry x="1131.5" y="340" width="370" height="30" as="geometry" />
        </mxCell>
        <mxCell id="0YQDP42LlHLJE5UTH5Np-9" value="2" style="text;html=1;align=center;verticalAlign=middle;resizable=1;points=[];autosize=1;strokeColor=none;fillColor=none;fontSize=18;movable=1;rotatable=1;deletable=1;editable=1;locked=0;connectable=1;" vertex="1" parent="rejoIrjV7qq8w0lhNhuF-1">
          <mxGeometry x="1241.5" y="370" width="50" height="40" as="geometry" />
        </mxCell>
        <mxCell id="0YQDP42LlHLJE5UTH5Np-10" value="1" style="text;html=1;align=center;verticalAlign=middle;resizable=1;points=[];autosize=1;strokeColor=none;fillColor=none;fontSize=18;movable=1;rotatable=1;deletable=1;editable=1;locked=0;connectable=1;" vertex="1" parent="rejoIrjV7qq8w0lhNhuF-1">
          <mxGeometry x="1151.5" y="370" width="56.36" height="40" as="geometry" />
        </mxCell>
        <mxCell id="0YQDP42LlHLJE5UTH5Np-11" value="3" style="text;html=1;align=center;verticalAlign=middle;resizable=1;points=[];autosize=1;strokeColor=none;fillColor=none;fontSize=18;movable=1;rotatable=1;deletable=1;editable=1;locked=0;connectable=1;" vertex="1" parent="rejoIrjV7qq8w0lhNhuF-1">
          <mxGeometry x="1331.5" y="370" width="60" height="40" as="geometry" />
        </mxCell>
        <mxCell id="0YQDP42LlHLJE5UTH5Np-12" value="4" style="text;html=1;align=center;verticalAlign=middle;resizable=1;points=[];autosize=1;strokeColor=none;fillColor=none;fontSize=18;movable=1;rotatable=1;deletable=1;editable=1;locked=0;connectable=1;" vertex="1" parent="rejoIrjV7qq8w0lhNhuF-1">
          <mxGeometry x="1436.5" y="370" width="30" height="40" as="geometry" />
        </mxCell>
        <mxCell id="0YQDP42LlHLJE5UTH5Np-13" value="0" style="whiteSpace=wrap;html=1;aspect=fixed;fontSize=24;fillColor=#dae8fc;strokeColor=#6c8ebf;" vertex="1" parent="rejoIrjV7qq8w0lhNhuF-1">
          <mxGeometry x="1230" y="410" width="80" height="80" as="geometry" />
        </mxCell>
        <mxCell id="0YQDP42LlHLJE5UTH5Np-14" value="0" style="whiteSpace=wrap;html=1;aspect=fixed;fontSize=24;fillColor=#dae8fc;strokeColor=#6c8ebf;" vertex="1" parent="rejoIrjV7qq8w0lhNhuF-1">
          <mxGeometry x="1140" y="410" width="80" height="80" as="geometry" />
        </mxCell>
        <mxCell id="0YQDP42LlHLJE5UTH5Np-15" value="0" style="whiteSpace=wrap;html=1;aspect=fixed;fontSize=24;fillColor=#dae8fc;strokeColor=#6c8ebf;" vertex="1" parent="rejoIrjV7qq8w0lhNhuF-1">
          <mxGeometry x="1410" y="410" width="80" height="80" as="geometry" />
        </mxCell>
        <mxCell id="mfYFQkmdiGB7j5h1LvPK-5" value="" style="group" vertex="1" connectable="0" parent="rejoIrjV7qq8w0lhNhuF-1">
          <mxGeometry x="370" y="630" width="220" height="60" as="geometry" />
        </mxCell>
        <mxCell id="mfYFQkmdiGB7j5h1LvPK-1" value="&amp;nbsp;k&amp;nbsp;" style="shape=crossbar;whiteSpace=wrap;html=1;rounded=1;labelBackgroundColor=#dae8fc;fontSize=25;container=0;" vertex="1" parent="mfYFQkmdiGB7j5h1LvPK-5">
          <mxGeometry width="220" height="30" as="geometry" />
        </mxCell>
        <mxCell id="mfYFQkmdiGB7j5h1LvPK-2" value="2" style="text;html=1;align=center;verticalAlign=middle;resizable=1;points=[];autosize=1;strokeColor=none;fillColor=none;fontSize=18;movable=1;rotatable=1;deletable=1;editable=1;locked=0;connectable=1;" vertex="1" parent="mfYFQkmdiGB7j5h1LvPK-5">
          <mxGeometry x="95" y="20" width="30" height="40" as="geometry" />
        </mxCell>
        <mxCell id="mfYFQkmdiGB7j5h1LvPK-3" value="1" style="text;html=1;align=center;verticalAlign=middle;resizable=1;points=[];autosize=1;strokeColor=none;fillColor=none;fontSize=18;movable=1;rotatable=1;deletable=1;editable=1;locked=0;connectable=1;" vertex="1" parent="mfYFQkmdiGB7j5h1LvPK-5">
          <mxGeometry x="20" y="25" width="40" height="30" as="geometry" />
        </mxCell>
        <mxCell id="mfYFQkmdiGB7j5h1LvPK-4" value="3" style="text;html=1;align=center;verticalAlign=middle;resizable=1;points=[];autosize=1;strokeColor=none;fillColor=none;fontSize=18;movable=1;rotatable=1;deletable=1;editable=1;locked=0;connectable=1;" vertex="1" parent="mfYFQkmdiGB7j5h1LvPK-5">
          <mxGeometry x="165" y="20" width="30" height="40" as="geometry" />
        </mxCell>
        <mxCell id="mfYFQkmdiGB7j5h1LvPK-6" value="" style="group" vertex="1" connectable="0" parent="rejoIrjV7qq8w0lhNhuF-1">
          <mxGeometry x="600" y="630" width="220" height="60" as="geometry" />
        </mxCell>
        <mxCell id="mfYFQkmdiGB7j5h1LvPK-7" value="&amp;nbsp;k&amp;nbsp;" style="shape=crossbar;whiteSpace=wrap;html=1;rounded=1;labelBackgroundColor=#dae8fc;fontSize=25;container=0;" vertex="1" parent="mfYFQkmdiGB7j5h1LvPK-6">
          <mxGeometry width="220" height="30" as="geometry" />
        </mxCell>
        <mxCell id="mfYFQkmdiGB7j5h1LvPK-8" value="2" style="text;html=1;align=center;verticalAlign=middle;resizable=1;points=[];autosize=1;strokeColor=none;fillColor=none;fontSize=18;movable=1;rotatable=1;deletable=1;editable=1;locked=0;connectable=1;" vertex="1" parent="mfYFQkmdiGB7j5h1LvPK-6">
          <mxGeometry x="95" y="20" width="30" height="40" as="geometry" />
        </mxCell>
        <mxCell id="mfYFQkmdiGB7j5h1LvPK-9" value="1" style="text;html=1;align=center;verticalAlign=middle;resizable=1;points=[];autosize=1;strokeColor=none;fillColor=none;fontSize=18;movable=1;rotatable=1;deletable=1;editable=1;locked=0;connectable=1;" vertex="1" parent="mfYFQkmdiGB7j5h1LvPK-6">
          <mxGeometry x="20" y="25" width="40" height="30" as="geometry" />
        </mxCell>
        <mxCell id="mfYFQkmdiGB7j5h1LvPK-10" value="3" style="text;html=1;align=center;verticalAlign=middle;resizable=1;points=[];autosize=1;strokeColor=none;fillColor=none;fontSize=18;movable=1;rotatable=1;deletable=1;editable=1;locked=0;connectable=1;" vertex="1" parent="mfYFQkmdiGB7j5h1LvPK-6">
          <mxGeometry x="165" y="20" width="30" height="40" as="geometry" />
        </mxCell>
        <mxCell id="mfYFQkmdiGB7j5h1LvPK-11" value="" style="group" vertex="1" connectable="0" parent="rejoIrjV7qq8w0lhNhuF-1">
          <mxGeometry x="830" y="630" width="220" height="60" as="geometry" />
        </mxCell>
        <mxCell id="mfYFQkmdiGB7j5h1LvPK-12" value="&amp;nbsp;k&amp;nbsp;" style="shape=crossbar;whiteSpace=wrap;html=1;rounded=1;labelBackgroundColor=#dae8fc;fontSize=25;container=0;" vertex="1" parent="mfYFQkmdiGB7j5h1LvPK-11">
          <mxGeometry width="220" height="30" as="geometry" />
        </mxCell>
        <mxCell id="mfYFQkmdiGB7j5h1LvPK-13" value="2" style="text;html=1;align=center;verticalAlign=middle;resizable=1;points=[];autosize=1;strokeColor=none;fillColor=none;fontSize=18;movable=1;rotatable=1;deletable=1;editable=1;locked=0;connectable=1;" vertex="1" parent="mfYFQkmdiGB7j5h1LvPK-11">
          <mxGeometry x="95" y="20" width="30" height="40" as="geometry" />
        </mxCell>
        <mxCell id="mfYFQkmdiGB7j5h1LvPK-14" value="1" style="text;html=1;align=center;verticalAlign=middle;resizable=1;points=[];autosize=1;strokeColor=none;fillColor=none;fontSize=18;movable=1;rotatable=1;deletable=1;editable=1;locked=0;connectable=1;" vertex="1" parent="mfYFQkmdiGB7j5h1LvPK-11">
          <mxGeometry x="20" y="25" width="40" height="30" as="geometry" />
        </mxCell>
        <mxCell id="mfYFQkmdiGB7j5h1LvPK-15" value="3" style="text;html=1;align=center;verticalAlign=middle;resizable=1;points=[];autosize=1;strokeColor=none;fillColor=none;fontSize=18;movable=1;rotatable=1;deletable=1;editable=1;locked=0;connectable=1;" vertex="1" parent="mfYFQkmdiGB7j5h1LvPK-11">
          <mxGeometry x="165" y="20" width="30" height="40" as="geometry" />
        </mxCell>
        <mxCell id="mfYFQkmdiGB7j5h1LvPK-16" value="" style="group;fontStyle=1" vertex="1" connectable="0" parent="rejoIrjV7qq8w0lhNhuF-1">
          <mxGeometry x="1290" y="630" width="220" height="60" as="geometry" />
        </mxCell>
        <mxCell id="mfYFQkmdiGB7j5h1LvPK-17" value="&amp;nbsp;k&amp;nbsp;" style="shape=crossbar;whiteSpace=wrap;html=1;rounded=1;labelBackgroundColor=#dae8fc;fontSize=25;container=0;" vertex="1" parent="mfYFQkmdiGB7j5h1LvPK-16">
          <mxGeometry width="220" height="30" as="geometry" />
        </mxCell>
        <mxCell id="mfYFQkmdiGB7j5h1LvPK-18" value="2" style="text;html=1;align=center;verticalAlign=middle;resizable=1;points=[];autosize=1;strokeColor=none;fillColor=none;fontSize=18;movable=1;rotatable=1;deletable=1;editable=1;locked=0;connectable=1;" vertex="1" parent="mfYFQkmdiGB7j5h1LvPK-16">
          <mxGeometry x="95" y="20" width="30" height="40" as="geometry" />
        </mxCell>
        <mxCell id="mfYFQkmdiGB7j5h1LvPK-19" value="1" style="text;html=1;align=center;verticalAlign=middle;resizable=1;points=[];autosize=1;strokeColor=none;fillColor=none;fontSize=18;movable=1;rotatable=1;deletable=1;editable=1;locked=0;connectable=1;" vertex="1" parent="mfYFQkmdiGB7j5h1LvPK-16">
          <mxGeometry x="20" y="25" width="40" height="30" as="geometry" />
        </mxCell>
        <mxCell id="mfYFQkmdiGB7j5h1LvPK-20" value="3" style="text;html=1;align=center;verticalAlign=middle;resizable=1;points=[];autosize=1;strokeColor=none;fillColor=none;fontSize=18;movable=1;rotatable=1;deletable=1;editable=1;locked=0;connectable=1;" vertex="1" parent="mfYFQkmdiGB7j5h1LvPK-16">
          <mxGeometry x="165" y="20" width="30" height="40" as="geometry" />
        </mxCell>
        <mxCell id="mfYFQkmdiGB7j5h1LvPK-21" value="" style="group;fontStyle=1" vertex="1" connectable="0" parent="rejoIrjV7qq8w0lhNhuF-1">
          <mxGeometry x="1060" y="630" width="220" height="60" as="geometry" />
        </mxCell>
        <mxCell id="mfYFQkmdiGB7j5h1LvPK-22" value="&amp;nbsp;k&amp;nbsp;" style="shape=crossbar;whiteSpace=wrap;html=1;rounded=1;labelBackgroundColor=#dae8fc;fontSize=25;container=0;" vertex="1" parent="mfYFQkmdiGB7j5h1LvPK-21">
          <mxGeometry width="220" height="30" as="geometry" />
        </mxCell>
        <mxCell id="mfYFQkmdiGB7j5h1LvPK-23" value="2" style="text;html=1;align=center;verticalAlign=middle;resizable=1;points=[];autosize=1;strokeColor=none;fillColor=none;fontSize=18;movable=1;rotatable=1;deletable=1;editable=1;locked=0;connectable=1;" vertex="1" parent="mfYFQkmdiGB7j5h1LvPK-21">
          <mxGeometry x="95" y="20" width="30" height="40" as="geometry" />
        </mxCell>
        <mxCell id="mfYFQkmdiGB7j5h1LvPK-24" value="1" style="text;html=1;align=center;verticalAlign=middle;resizable=1;points=[];autosize=1;strokeColor=none;fillColor=none;fontSize=18;movable=1;rotatable=1;deletable=1;editable=1;locked=0;connectable=1;" vertex="1" parent="mfYFQkmdiGB7j5h1LvPK-21">
          <mxGeometry x="20" y="25" width="40" height="30" as="geometry" />
        </mxCell>
        <mxCell id="mfYFQkmdiGB7j5h1LvPK-25" value="3" style="text;html=1;align=center;verticalAlign=middle;resizable=1;points=[];autosize=1;strokeColor=none;fillColor=none;fontSize=18;movable=1;rotatable=1;deletable=1;editable=1;locked=0;connectable=1;" vertex="1" parent="mfYFQkmdiGB7j5h1LvPK-21">
          <mxGeometry x="165" y="20" width="30" height="40" as="geometry" />
        </mxCell>
        <mxCell id="mfYFQkmdiGB7j5h1LvPK-26" value="11.1" style="whiteSpace=wrap;html=1;aspect=fixed;fontSize=24;" vertex="1" parent="rejoIrjV7qq8w0lhNhuF-1">
          <mxGeometry x="1069" y="910" width="60" height="60" as="geometry" />
        </mxCell>
        <mxCell id="mfYFQkmdiGB7j5h1LvPK-27" value="10.0" style="whiteSpace=wrap;html=1;aspect=fixed;fontSize=24;" vertex="1" parent="rejoIrjV7qq8w0lhNhuF-1">
          <mxGeometry x="1000" y="910" width="60" height="60" as="geometry" />
        </mxCell>
        <mxCell id="mfYFQkmdiGB7j5h1LvPK-28" value="12.2" style="whiteSpace=wrap;html=1;aspect=fixed;fontSize=24;" vertex="1" parent="rejoIrjV7qq8w0lhNhuF-1">
          <mxGeometry x="1140" y="910" width="60" height="60" as="geometry" />
        </mxCell>
        <mxCell id="mfYFQkmdiGB7j5h1LvPK-29" value="7.7" style="whiteSpace=wrap;html=1;aspect=fixed;fontSize=24;" vertex="1" parent="rejoIrjV7qq8w0lhNhuF-1">
          <mxGeometry x="790" y="910" width="60" height="60" as="geometry" />
        </mxCell>
        <mxCell id="mfYFQkmdiGB7j5h1LvPK-30" value="8.8" style="whiteSpace=wrap;html=1;aspect=fixed;fontSize=24;" vertex="1" parent="rejoIrjV7qq8w0lhNhuF-1">
          <mxGeometry x="859" y="910" width="60" height="60" as="geometry" />
        </mxCell>
        <mxCell id="mfYFQkmdiGB7j5h1LvPK-31" value="9.9" style="whiteSpace=wrap;html=1;aspect=fixed;fontSize=24;" vertex="1" parent="rejoIrjV7qq8w0lhNhuF-1">
          <mxGeometry x="930" y="910" width="60" height="60" as="geometry" />
        </mxCell>
        <mxCell id="mfYFQkmdiGB7j5h1LvPK-32" value="4.4" style="whiteSpace=wrap;html=1;aspect=fixed;fontSize=24;labelBackgroundColor=none;" vertex="1" parent="rejoIrjV7qq8w0lhNhuF-1">
          <mxGeometry x="580" y="910" width="60" height="60" as="geometry" />
        </mxCell>
        <mxCell id="mfYFQkmdiGB7j5h1LvPK-33" value="&lt;span style=&quot;color: rgb(0, 0, 0); font-family: Helvetica; font-size: 24px; font-style: normal; font-variant-ligatures: normal; font-variant-caps: normal; font-weight: 400; letter-spacing: normal; orphans: 2; text-align: center; text-indent: 0px; text-transform: none; widows: 2; word-spacing: 0px; -webkit-text-stroke-width: 0px; text-decoration-thickness: initial; text-decoration-style: initial; text-decoration-color: initial; float: none; display: inline !important;&quot;&gt;5.5&lt;/span&gt;" style="whiteSpace=wrap;html=1;aspect=fixed;fontSize=24;labelBackgroundColor=none;" vertex="1" parent="rejoIrjV7qq8w0lhNhuF-1">
          <mxGeometry x="649" y="910" width="60" height="60" as="geometry" />
        </mxCell>
        <mxCell id="mfYFQkmdiGB7j5h1LvPK-34" value="&lt;span style=&quot;color: rgb(0, 0, 0); font-family: Helvetica; font-size: 24px; font-style: normal; font-variant-ligatures: normal; font-variant-caps: normal; font-weight: 400; letter-spacing: normal; orphans: 2; text-align: center; text-indent: 0px; text-transform: none; widows: 2; word-spacing: 0px; -webkit-text-stroke-width: 0px; background-color: rgb(251, 251, 251); text-decoration-thickness: initial; text-decoration-style: initial; text-decoration-color: initial; float: none; display: inline !important;&quot;&gt;6.6&lt;/span&gt;" style="whiteSpace=wrap;html=1;aspect=fixed;fontSize=24;" vertex="1" parent="rejoIrjV7qq8w0lhNhuF-1">
          <mxGeometry x="720" y="910" width="60" height="60" as="geometry" />
        </mxCell>
        <mxCell id="mfYFQkmdiGB7j5h1LvPK-35" value="2.2" style="whiteSpace=wrap;html=1;aspect=fixed;fontSize=24;" vertex="1" parent="rejoIrjV7qq8w0lhNhuF-1">
          <mxGeometry x="440" y="910" width="60" height="60" as="geometry" />
        </mxCell>
        <mxCell id="mfYFQkmdiGB7j5h1LvPK-36" value="1.1" style="whiteSpace=wrap;html=1;aspect=fixed;fontSize=24;" vertex="1" parent="rejoIrjV7qq8w0lhNhuF-1">
          <mxGeometry x="370" y="910" width="60" height="60" as="geometry" />
        </mxCell>
        <mxCell id="mfYFQkmdiGB7j5h1LvPK-37" value="&lt;span style=&quot;color: rgb(0, 0, 0); font-family: Helvetica; font-size: 24px; font-style: normal; font-variant-ligatures: normal; font-variant-caps: normal; font-weight: 400; letter-spacing: normal; orphans: 2; text-align: center; text-indent: 0px; text-transform: none; widows: 2; word-spacing: 0px; -webkit-text-stroke-width: 0px; background-color: rgb(251, 251, 251); text-decoration-thickness: initial; text-decoration-style: initial; text-decoration-color: initial; float: none; display: inline !important;&quot;&gt;3.3&lt;/span&gt;" style="whiteSpace=wrap;html=1;aspect=fixed;fontSize=24;" vertex="1" parent="rejoIrjV7qq8w0lhNhuF-1">
          <mxGeometry x="510" y="910" width="60" height="60" as="geometry" />
        </mxCell>
        <mxCell id="mfYFQkmdiGB7j5h1LvPK-38" value="14.4" style="whiteSpace=wrap;html=1;aspect=fixed;fontSize=24;" vertex="1" parent="rejoIrjV7qq8w0lhNhuF-1">
          <mxGeometry x="1279" y="910" width="60" height="60" as="geometry" />
        </mxCell>
        <mxCell id="mfYFQkmdiGB7j5h1LvPK-39" value="13.3" style="whiteSpace=wrap;html=1;aspect=fixed;fontSize=24;" vertex="1" parent="rejoIrjV7qq8w0lhNhuF-1">
          <mxGeometry x="1210" y="910" width="60" height="60" as="geometry" />
        </mxCell>
        <mxCell id="mfYFQkmdiGB7j5h1LvPK-40" value="15.5" style="whiteSpace=wrap;html=1;aspect=fixed;fontSize=24;" vertex="1" parent="rejoIrjV7qq8w0lhNhuF-1">
          <mxGeometry x="1350" y="910" width="60" height="60" as="geometry" />
        </mxCell>
        <mxCell id="mfYFQkmdiGB7j5h1LvPK-42" value="1" style="text;html=1;align=center;verticalAlign=middle;resizable=1;points=[];autosize=1;strokeColor=none;fillColor=none;fontSize=18;movable=1;rotatable=1;deletable=1;editable=1;locked=0;connectable=1;" vertex="1" parent="rejoIrjV7qq8w0lhNhuF-1">
          <mxGeometry x="370" y="860" width="60" height="50" as="geometry" />
        </mxCell>
        <mxCell id="mfYFQkmdiGB7j5h1LvPK-43" value="2" style="text;html=1;align=center;verticalAlign=middle;resizable=1;points=[];autosize=1;strokeColor=none;fillColor=none;fontSize=18;movable=1;rotatable=1;deletable=1;editable=1;locked=0;connectable=1;" vertex="1" parent="rejoIrjV7qq8w0lhNhuF-1">
          <mxGeometry x="455" y="860" width="30" height="50" as="geometry" />
        </mxCell>
        <mxCell id="mfYFQkmdiGB7j5h1LvPK-44" value="3" style="text;html=1;align=center;verticalAlign=middle;resizable=1;points=[];autosize=1;strokeColor=none;fillColor=none;fontSize=18;movable=1;rotatable=1;deletable=1;editable=1;locked=0;connectable=1;" vertex="1" parent="rejoIrjV7qq8w0lhNhuF-1">
          <mxGeometry x="525" y="860" width="30" height="50" as="geometry" />
        </mxCell>
        <mxCell id="mfYFQkmdiGB7j5h1LvPK-45" value="4" style="text;html=1;align=center;verticalAlign=middle;resizable=1;points=[];autosize=1;strokeColor=none;fillColor=none;fontSize=18;movable=1;rotatable=1;deletable=1;editable=1;locked=0;connectable=1;" vertex="1" parent="rejoIrjV7qq8w0lhNhuF-1">
          <mxGeometry x="595" y="860" width="30" height="50" as="geometry" />
        </mxCell>
        <mxCell id="mfYFQkmdiGB7j5h1LvPK-46" value="5" style="text;html=1;align=center;verticalAlign=middle;resizable=1;points=[];autosize=1;strokeColor=none;fillColor=none;fontSize=18;movable=1;rotatable=1;deletable=1;editable=1;locked=0;connectable=1;" vertex="1" parent="rejoIrjV7qq8w0lhNhuF-1">
          <mxGeometry x="665" y="860" width="30" height="50" as="geometry" />
        </mxCell>
        <mxCell id="mfYFQkmdiGB7j5h1LvPK-47" value="6" style="text;html=1;align=center;verticalAlign=middle;resizable=1;points=[];autosize=1;strokeColor=none;fillColor=none;fontSize=18;movable=1;rotatable=1;deletable=1;editable=1;locked=0;connectable=1;" vertex="1" parent="rejoIrjV7qq8w0lhNhuF-1">
          <mxGeometry x="735" y="860" width="30" height="50" as="geometry" />
        </mxCell>
        <mxCell id="mfYFQkmdiGB7j5h1LvPK-48" value="7" style="text;html=1;align=center;verticalAlign=middle;resizable=1;points=[];autosize=1;strokeColor=none;fillColor=none;fontSize=18;movable=1;rotatable=1;deletable=1;editable=1;locked=0;connectable=1;" vertex="1" parent="rejoIrjV7qq8w0lhNhuF-1">
          <mxGeometry x="805" y="860" width="30" height="50" as="geometry" />
        </mxCell>
        <mxCell id="mfYFQkmdiGB7j5h1LvPK-49" value="8" style="text;html=1;align=center;verticalAlign=middle;resizable=1;points=[];autosize=1;strokeColor=none;fillColor=none;fontSize=18;movable=1;rotatable=1;deletable=1;editable=1;locked=0;connectable=1;" vertex="1" parent="rejoIrjV7qq8w0lhNhuF-1">
          <mxGeometry x="875" y="860" width="30" height="50" as="geometry" />
        </mxCell>
        <mxCell id="mfYFQkmdiGB7j5h1LvPK-50" value="9" style="text;html=1;align=center;verticalAlign=middle;resizable=1;points=[];autosize=1;strokeColor=none;fillColor=none;fontSize=18;movable=1;rotatable=1;deletable=1;editable=1;locked=0;connectable=1;" vertex="1" parent="rejoIrjV7qq8w0lhNhuF-1">
          <mxGeometry x="945" y="860" width="30" height="50" as="geometry" />
        </mxCell>
        <mxCell id="mfYFQkmdiGB7j5h1LvPK-51" value="10" style="text;html=1;align=center;verticalAlign=middle;resizable=1;points=[];autosize=1;strokeColor=none;fillColor=none;fontSize=18;movable=1;rotatable=1;deletable=1;editable=1;locked=0;connectable=1;" vertex="1" parent="rejoIrjV7qq8w0lhNhuF-1">
          <mxGeometry x="1010" y="860" width="40" height="50" as="geometry" />
        </mxCell>
        <mxCell id="mfYFQkmdiGB7j5h1LvPK-52" value="11" style="text;html=1;align=center;verticalAlign=middle;resizable=1;points=[];autosize=1;strokeColor=none;fillColor=none;fontSize=18;movable=1;rotatable=1;deletable=1;editable=1;locked=0;connectable=1;" vertex="1" parent="rejoIrjV7qq8w0lhNhuF-1">
          <mxGeometry x="1080" y="860" width="40" height="50" as="geometry" />
        </mxCell>
        <mxCell id="mfYFQkmdiGB7j5h1LvPK-53" value="12" style="text;html=1;align=center;verticalAlign=middle;resizable=1;points=[];autosize=1;strokeColor=none;fillColor=none;fontSize=18;movable=1;rotatable=1;deletable=1;editable=1;locked=0;connectable=1;" vertex="1" parent="rejoIrjV7qq8w0lhNhuF-1">
          <mxGeometry x="1150" y="860" width="40" height="50" as="geometry" />
        </mxCell>
        <mxCell id="mfYFQkmdiGB7j5h1LvPK-54" value="13" style="text;html=1;align=center;verticalAlign=middle;resizable=1;points=[];autosize=1;strokeColor=none;fillColor=none;fontSize=18;movable=1;rotatable=1;deletable=1;editable=1;locked=0;connectable=1;" vertex="1" parent="rejoIrjV7qq8w0lhNhuF-1">
          <mxGeometry x="1220" y="860" width="40" height="50" as="geometry" />
        </mxCell>
        <mxCell id="mfYFQkmdiGB7j5h1LvPK-55" value="14" style="text;html=1;align=center;verticalAlign=middle;resizable=1;points=[];autosize=1;strokeColor=none;fillColor=none;fontSize=18;movable=1;rotatable=1;deletable=1;editable=1;locked=0;connectable=1;" vertex="1" parent="rejoIrjV7qq8w0lhNhuF-1">
          <mxGeometry x="1290" y="860" width="40" height="50" as="geometry" />
        </mxCell>
        <mxCell id="mfYFQkmdiGB7j5h1LvPK-56" value="15" style="text;html=1;align=center;verticalAlign=middle;resizable=1;points=[];autosize=1;strokeColor=none;fillColor=none;fontSize=18;movable=1;rotatable=1;deletable=1;editable=1;locked=0;connectable=1;" vertex="1" parent="rejoIrjV7qq8w0lhNhuF-1">
          <mxGeometry x="1360" y="860" width="40" height="50" as="geometry" />
        </mxCell>
        <mxCell id="mfYFQkmdiGB7j5h1LvPK-91" value="2" style="text;html=1;align=center;verticalAlign=middle;resizable=1;points=[];autosize=1;strokeColor=none;fillColor=none;fontSize=18;movable=1;rotatable=1;deletable=1;editable=1;locked=0;connectable=1;" vertex="1" parent="rejoIrjV7qq8w0lhNhuF-1">
          <mxGeometry x="920" y="300" width="30" height="40" as="geometry" />
        </mxCell>
        <mxCell id="mfYFQkmdiGB7j5h1LvPK-92" value="1" style="text;html=1;align=center;verticalAlign=middle;resizable=1;points=[];autosize=1;strokeColor=none;fillColor=none;fontSize=18;movable=1;rotatable=1;deletable=1;editable=1;locked=0;connectable=1;" vertex="1" parent="rejoIrjV7qq8w0lhNhuF-1">
          <mxGeometry x="530" y="290" width="56.36" height="60" as="geometry" />
        </mxCell>
        <mxCell id="mfYFQkmdiGB7j5h1LvPK-93" value="3" style="text;html=1;align=center;verticalAlign=middle;resizable=1;points=[];autosize=1;strokeColor=none;fillColor=none;fontSize=18;movable=1;rotatable=1;deletable=1;editable=1;locked=0;connectable=1;" vertex="1" parent="rejoIrjV7qq8w0lhNhuF-1">
          <mxGeometry x="1280" y="290" width="70" height="60" as="geometry" />
        </mxCell>
        <mxCell id="mfYFQkmdiGB7j5h1LvPK-94" value="" style="rounded=0;whiteSpace=wrap;html=1;fontSize=24;container=0;" vertex="1" parent="rejoIrjV7qq8w0lhNhuF-1">
          <mxGeometry x="370" y="120" width="460" height="100" as="geometry" />
        </mxCell>
        <mxCell id="mfYFQkmdiGB7j5h1LvPK-122" style="edgeStyle=orthogonalEdgeStyle;rounded=0;orthogonalLoop=1;jettySize=auto;html=1;exitX=0.5;exitY=1;exitDx=0;exitDy=0;" edge="1" parent="rejoIrjV7qq8w0lhNhuF-1" source="mfYFQkmdiGB7j5h1LvPK-95" target="mfYFQkmdiGB7j5h1LvPK-91">
          <mxGeometry relative="1" as="geometry" />
        </mxCell>
        <mxCell id="mfYFQkmdiGB7j5h1LvPK-95" value="" style="whiteSpace=wrap;html=1;aspect=fixed;fontSize=24;container=0;" vertex="1" parent="rejoIrjV7qq8w0lhNhuF-1">
          <mxGeometry x="470" y="130" width="80" height="80" as="geometry" />
        </mxCell>
        <mxCell id="mfYFQkmdiGB7j5h1LvPK-97" value="&amp;nbsp;i&amp;nbsp;" style="shape=crossbar;whiteSpace=wrap;html=1;rounded=1;labelBackgroundColor=#dae8fc;fontSize=25;container=0;" vertex="1" parent="rejoIrjV7qq8w0lhNhuF-1">
          <mxGeometry x="371.5" y="60" width="458.5" height="30" as="geometry" />
        </mxCell>
        <mxCell id="mfYFQkmdiGB7j5h1LvPK-98" value="2" style="text;html=1;align=center;verticalAlign=middle;resizable=1;points=[];autosize=1;strokeColor=none;fillColor=none;fontSize=18;movable=1;rotatable=1;deletable=1;editable=1;locked=0;connectable=1;" vertex="1" parent="rejoIrjV7qq8w0lhNhuF-1">
          <mxGeometry x="481.5" y="90" width="50" height="40" as="geometry" />
        </mxCell>
        <mxCell id="mfYFQkmdiGB7j5h1LvPK-99" value="1" style="text;html=1;align=center;verticalAlign=middle;resizable=1;points=[];autosize=1;strokeColor=none;fillColor=none;fontSize=18;movable=1;rotatable=1;deletable=1;editable=1;locked=0;connectable=1;" vertex="1" parent="rejoIrjV7qq8w0lhNhuF-1">
          <mxGeometry x="391.5" y="90" width="56.36" height="40" as="geometry" />
        </mxCell>
        <mxCell id="mfYFQkmdiGB7j5h1LvPK-100" value="3" style="text;html=1;align=center;verticalAlign=middle;resizable=1;points=[];autosize=1;strokeColor=none;fillColor=none;fontSize=18;movable=1;rotatable=1;deletable=1;editable=1;locked=0;connectable=1;" vertex="1" parent="rejoIrjV7qq8w0lhNhuF-1">
          <mxGeometry x="571.5" y="90" width="60" height="40" as="geometry" />
        </mxCell>
        <mxCell id="mfYFQkmdiGB7j5h1LvPK-101" value="4" style="text;html=1;align=center;verticalAlign=middle;resizable=1;points=[];autosize=1;strokeColor=none;fillColor=none;fontSize=18;movable=1;rotatable=1;deletable=1;editable=1;locked=0;connectable=1;" vertex="1" parent="rejoIrjV7qq8w0lhNhuF-1">
          <mxGeometry x="676.5" y="90" width="30" height="40" as="geometry" />
        </mxCell>
        <mxCell id="mfYFQkmdiGB7j5h1LvPK-102" value="0" style="whiteSpace=wrap;html=1;aspect=fixed;fontSize=24;fillColor=#dae8fc;strokeColor=#6c8ebf;" vertex="1" parent="rejoIrjV7qq8w0lhNhuF-1">
          <mxGeometry x="560" y="130" width="80" height="80" as="geometry" />
        </mxCell>
        <mxCell id="mfYFQkmdiGB7j5h1LvPK-121" style="edgeStyle=orthogonalEdgeStyle;rounded=0;orthogonalLoop=1;jettySize=auto;html=1;exitX=0.5;exitY=1;exitDx=0;exitDy=0;" edge="1" parent="rejoIrjV7qq8w0lhNhuF-1" source="mfYFQkmdiGB7j5h1LvPK-117" target="mfYFQkmdiGB7j5h1LvPK-92">
          <mxGeometry relative="1" as="geometry">
            <Array as="points">
              <mxPoint x="420" y="270" />
              <mxPoint x="558" y="270" />
            </Array>
          </mxGeometry>
        </mxCell>
        <mxCell id="mfYFQkmdiGB7j5h1LvPK-117" value="" style="whiteSpace=wrap;html=1;aspect=fixed;fontSize=24;container=0;" vertex="1" parent="rejoIrjV7qq8w0lhNhuF-1">
          <mxGeometry x="380" y="130" width="80" height="80" as="geometry" />
        </mxCell>
        <mxCell id="mfYFQkmdiGB7j5h1LvPK-123" style="edgeStyle=orthogonalEdgeStyle;rounded=0;orthogonalLoop=1;jettySize=auto;html=1;exitX=0.5;exitY=1;exitDx=0;exitDy=0;" edge="1" parent="rejoIrjV7qq8w0lhNhuF-1" source="mfYFQkmdiGB7j5h1LvPK-118" target="mfYFQkmdiGB7j5h1LvPK-93">
          <mxGeometry relative="1" as="geometry">
            <Array as="points">
              <mxPoint x="780" y="240" />
              <mxPoint x="1315" y="240" />
            </Array>
          </mxGeometry>
        </mxCell>
        <mxCell id="mfYFQkmdiGB7j5h1LvPK-118" value="" style="whiteSpace=wrap;html=1;aspect=fixed;fontSize=24;container=0;" vertex="1" parent="rejoIrjV7qq8w0lhNhuF-1">
          <mxGeometry x="740" y="130" width="80" height="80" as="geometry" />
        </mxCell>
        <mxCell id="mfYFQkmdiGB7j5h1LvPK-119" value="0" style="whiteSpace=wrap;html=1;aspect=fixed;fontSize=24;fillColor=#dae8fc;strokeColor=#6c8ebf;" vertex="1" parent="rejoIrjV7qq8w0lhNhuF-1">
          <mxGeometry x="650" y="130" width="80" height="80" as="geometry" />
        </mxCell>
        <mxCell id="mfYFQkmdiGB7j5h1LvPK-120" value="5" style="text;html=1;align=center;verticalAlign=middle;resizable=1;points=[];autosize=1;strokeColor=none;fillColor=none;fontSize=18;movable=1;rotatable=1;deletable=1;editable=1;locked=0;connectable=1;" vertex="1" parent="rejoIrjV7qq8w0lhNhuF-1">
          <mxGeometry x="770" y="90" width="30" height="40" as="geometry" />
        </mxCell>
        <mxCell id="d7XTWh8nlKR8lQ49LyYu-0" value="Sparse Level" style="whiteSpace=wrap;html=1;fontSize=24;container=0;" vertex="1" parent="rejoIrjV7qq8w0lhNhuF-1">
          <mxGeometry x="40" y="50" width="280" height="180" as="geometry" />
        </mxCell>
        <mxCell id="d7XTWh8nlKR8lQ49LyYu-1" value="Sparse Level" style="whiteSpace=wrap;html=1;fontSize=24;container=0;" vertex="1" parent="rejoIrjV7qq8w0lhNhuF-1">
          <mxGeometry x="40" y="330" width="280" height="180" as="geometry" />
        </mxCell>
        <mxCell id="d7XTWh8nlKR8lQ49LyYu-2" value="Positions:" style="text;html=1;align=center;verticalAlign=middle;resizable=0;points=[];autosize=1;strokeColor=none;fillColor=none;fontSize=24;" vertex="1" parent="rejoIrjV7qq8w0lhNhuF-1">
          <mxGeometry x="260" y="860" width="130" height="40" as="geometry" />
        </mxCell>
        <mxCell id="d7XTWh8nlKR8lQ49LyYu-3" value="Positions:" style="text;html=1;align=center;verticalAlign=middle;resizable=0;points=[];autosize=1;strokeColor=none;fillColor=none;fontSize=24;" vertex="1" parent="rejoIrjV7qq8w0lhNhuF-1">
          <mxGeometry x="260" y="580" width="130" height="40" as="geometry" />
        </mxCell>
        <mxCell id="d7XTWh8nlKR8lQ49LyYu-4" value="Positions:" style="text;html=1;align=center;verticalAlign=middle;resizable=0;points=[];autosize=1;strokeColor=none;fillColor=none;fontSize=24;" vertex="1" parent="rejoIrjV7qq8w0lhNhuF-1">
          <mxGeometry x="260" y="290" width="130" height="40" as="geometry" />
        </mxCell>
        <mxCell id="d7XTWh8nlKR8lQ49LyYu-6" value="Element Level" style="whiteSpace=wrap;html=1;fontSize=24;container=0;" vertex="1" parent="rejoIrjV7qq8w0lhNhuF-1">
          <mxGeometry x="40" y="900" width="280" height="80" as="geometry" />
        </mxCell>
        <mxCell id="d7XTWh8nlKR8lQ49LyYu-7" value="" style="endArrow=classic;html=1;rounded=0;strokeColor=#ff0000;entryX=0.5;entryY=0;entryDx=0;entryDy=0;exitX=0.636;exitY=0.975;exitDx=0;exitDy=0;exitPerimeter=0;" edge="1" parent="rejoIrjV7qq8w0lhNhuF-1" source="d7XTWh8nlKR8lQ49LyYu-10" target="0YQDP42LlHLJE5UTH5Np-5">
          <mxGeometry width="50" height="50" relative="1" as="geometry">
            <mxPoint x="1340" y="100" as="sourcePoint" />
            <mxPoint x="1320" y="390" as="targetPoint" />
          </mxGeometry>
        </mxCell>
        <mxCell id="d7XTWh8nlKR8lQ49LyYu-8" value="" style="endArrow=classic;html=1;rounded=0;strokeColor=#ff0000;entryX=0.5;entryY=0;entryDx=0;entryDy=0;exitX=0.241;exitY=0.939;exitDx=0;exitDy=0;exitPerimeter=0;" edge="1" parent="rejoIrjV7qq8w0lhNhuF-1" source="d7XTWh8nlKR8lQ49LyYu-10" target="lkhGQzZS0AMf5QW9-wwf-12">
          <mxGeometry width="50" height="50" relative="1" as="geometry">
            <mxPoint x="1360" y="110" as="sourcePoint" />
            <mxPoint x="940" y="380" as="targetPoint" />
          </mxGeometry>
        </mxCell>
        <mxCell id="d7XTWh8nlKR8lQ49LyYu-9" value="" style="endArrow=classic;html=1;rounded=0;strokeColor=#ff0000;entryX=1;entryY=0.5;entryDx=0;entryDy=0;exitX=-0.011;exitY=-0.061;exitDx=0;exitDy=0;exitPerimeter=0;" edge="1" parent="rejoIrjV7qq8w0lhNhuF-1" source="d7XTWh8nlKR8lQ49LyYu-10" target="mfYFQkmdiGB7j5h1LvPK-94">
          <mxGeometry width="50" height="50" relative="1" as="geometry">
            <mxPoint x="1360" y="110" as="sourcePoint" />
            <mxPoint x="940" y="380" as="targetPoint" />
          </mxGeometry>
        </mxCell>
        <mxCell id="d7XTWh8nlKR8lQ49LyYu-10" value="Sparse Fibers" style="text;html=1;align=center;verticalAlign=middle;resizable=0;points=[];autosize=1;strokeColor=none;fillColor=none;fontSize=24;fontColor=#ff0000;" vertex="1" parent="rejoIrjV7qq8w0lhNhuF-1">
          <mxGeometry x="1040" y="270" width="170" height="40" as="geometry" />
        </mxCell>
        <mxCell id="d7XTWh8nlKR8lQ49LyYu-11" value="Dense Fibers" style="text;html=1;align=center;verticalAlign=middle;resizable=0;points=[];autosize=1;strokeColor=none;fillColor=none;fontSize=24;fontColor=#ff0000;" vertex="1" parent="rejoIrjV7qq8w0lhNhuF-1">
          <mxGeometry x="1190" y="550" width="170" height="40" as="geometry" />
        </mxCell>
        <mxCell id="d7XTWh8nlKR8lQ49LyYu-12" value="" style="endArrow=classic;html=1;rounded=0;strokeColor=#ff0000;entryX=0.75;entryY=0;entryDx=0;entryDy=0;" edge="1" parent="rejoIrjV7qq8w0lhNhuF-1" source="d7XTWh8nlKR8lQ49LyYu-11" target="0YQDP42LlHLJE5UTH5Np-0">
          <mxGeometry width="50" height="50" relative="1" as="geometry">
            <mxPoint x="1793" y="330" as="sourcePoint" />
            <mxPoint x="1760" y="627" as="targetPoint" />
          </mxGeometry>
        </mxCell>
        <mxCell id="d7XTWh8nlKR8lQ49LyYu-13" value="" style="endArrow=classic;html=1;rounded=0;strokeColor=#ff0000;entryX=0.654;entryY=0.023;entryDx=0;entryDy=0;entryPerimeter=0;exitX=0.292;exitY=1.011;exitDx=0;exitDy=0;exitPerimeter=0;" edge="1" parent="rejoIrjV7qq8w0lhNhuF-1" source="d7XTWh8nlKR8lQ49LyYu-11" target="rejoIrjV7qq8w0lhNhuF-14">
          <mxGeometry width="50" height="50" relative="1" as="geometry">
            <mxPoint x="1264" y="593" as="sourcePoint" />
            <mxPoint x="1420" y="675" as="targetPoint" />
          </mxGeometry>
        </mxCell>
        <mxCell id="C6O-z1yzapiZi0vQyAfG-35" value="&lt;span style=&quot;color: rgb(0, 0, 0); font-family: Helvetica; font-size: 18px; font-style: normal; font-variant-ligatures: normal; font-variant-caps: normal; font-weight: 400; letter-spacing: normal; orphans: 2; text-align: center; text-indent: 0px; text-transform: none; widows: 2; word-spacing: 0px; -webkit-text-stroke-width: 0px; white-space: normal; background-color: rgb(255, 255, 255); text-decoration-thickness: initial; text-decoration-style: initial; text-decoration-color: initial; float: none; display: inline !important;&quot;&gt;&amp;nbsp;i&amp;nbsp;&lt;/span&gt;" style="shape=crossbar;whiteSpace=wrap;html=1;rounded=1;labelBackgroundColor=#dae8fc;fontSize=18;container=0;rotation=323;" vertex="1" parent="rejoIrjV7qq8w0lhNhuF-1">
          <mxGeometry x="960" y="-107.81" width="300" height="30" as="geometry" />
        </mxCell>
        <mxCell id="C6O-z1yzapiZi0vQyAfG-39" value="" style="group;aspect=fixed;fontSize=18;" vertex="1" connectable="0" parent="rejoIrjV7qq8w0lhNhuF-1">
          <mxGeometry x="978.53" y="-170" width="540" height="390" as="geometry" />
        </mxCell>
        <mxCell id="C6O-z1yzapiZi0vQyAfG-0" value="" style="group;fontSize=18;" vertex="1" connectable="0" parent="C6O-z1yzapiZi0vQyAfG-39">
          <mxGeometry x="262.5" width="277.5" height="180" as="geometry" />
        </mxCell>
        <mxCell id="C6O-z1yzapiZi0vQyAfG-1" value="" style="rounded=0;whiteSpace=wrap;html=1;fillColor=#dae8fc;strokeColor=#6c8ebf;fontSize=18;container=0;" vertex="1" parent="C6O-z1yzapiZi0vQyAfG-0">
          <mxGeometry width="277.5" height="180" as="geometry" />
        </mxCell>
        <mxCell id="C6O-z1yzapiZi0vQyAfG-2" value="0" style="whiteSpace=wrap;html=1;fontSize=18;fillColor=#dae8fc;strokeColor=#6c8ebf;container=0;" vertex="1" parent="C6O-z1yzapiZi0vQyAfG-0">
          <mxGeometry x="75" y="7.5" width="60" height="165" as="geometry" />
        </mxCell>
        <mxCell id="C6O-z1yzapiZi0vQyAfG-3" value="" style="rounded=0;whiteSpace=wrap;html=1;fontSize=18;container=0;" vertex="1" parent="C6O-z1yzapiZi0vQyAfG-0">
          <mxGeometry x="210" y="7.5" width="60" height="165" as="geometry" />
        </mxCell>
        <mxCell id="C6O-z1yzapiZi0vQyAfG-4" value="&lt;span style=&quot;color: rgb(0, 0, 0); font-family: Helvetica; font-size: 18px; font-style: normal; font-variant-ligatures: normal; font-variant-caps: normal; font-weight: 400; letter-spacing: normal; orphans: 2; text-align: center; text-indent: 0px; text-transform: none; widows: 2; word-spacing: 0px; -webkit-text-stroke-width: 0px; background-color: rgb(251, 251, 251); text-decoration-thickness: initial; text-decoration-style: initial; text-decoration-color: initial; float: none; display: inline !important;&quot;&gt;13.3&lt;/span&gt;" style="whiteSpace=wrap;html=1;aspect=fixed;fontSize=18;container=0;" vertex="1" parent="C6O-z1yzapiZi0vQyAfG-0">
          <mxGeometry x="217.5" y="15" width="45" height="45" as="geometry" />
        </mxCell>
        <mxCell id="C6O-z1yzapiZi0vQyAfG-5" value="&lt;span style=&quot;color: rgb(0, 0, 0); font-family: Helvetica; font-size: 18px; font-style: normal; font-variant-ligatures: normal; font-variant-caps: normal; font-weight: 400; letter-spacing: normal; orphans: 2; text-align: center; text-indent: 0px; text-transform: none; widows: 2; word-spacing: 0px; -webkit-text-stroke-width: 0px; background-color: rgb(251, 251, 251); text-decoration-thickness: initial; text-decoration-style: initial; text-decoration-color: initial; float: none; display: inline !important;&quot;&gt;14.4&lt;/span&gt;" style="whiteSpace=wrap;html=1;aspect=fixed;fontSize=18;container=0;" vertex="1" parent="C6O-z1yzapiZi0vQyAfG-0">
          <mxGeometry x="217.5" y="67.5" width="45" height="45" as="geometry" />
        </mxCell>
        <mxCell id="C6O-z1yzapiZi0vQyAfG-6" value="&lt;span style=&quot;color: rgb(0, 0, 0); font-family: Helvetica; font-size: 18px; font-style: normal; font-variant-ligatures: normal; font-variant-caps: normal; font-weight: 400; letter-spacing: normal; orphans: 2; text-align: center; text-indent: 0px; text-transform: none; widows: 2; word-spacing: 0px; -webkit-text-stroke-width: 0px; background-color: rgb(251, 251, 251); text-decoration-thickness: initial; text-decoration-style: initial; text-decoration-color: initial; float: none; display: inline !important;&quot;&gt;15.5&lt;/span&gt;" style="whiteSpace=wrap;html=1;aspect=fixed;fontSize=18;container=0;" vertex="1" parent="C6O-z1yzapiZi0vQyAfG-0">
          <mxGeometry x="217.5" y="120" width="45" height="45" as="geometry" />
        </mxCell>
        <mxCell id="C6O-z1yzapiZi0vQyAfG-7" value="0" style="whiteSpace=wrap;html=1;fontSize=18;fillColor=#dae8fc;strokeColor=#6c8ebf;container=0;" vertex="1" parent="C6O-z1yzapiZi0vQyAfG-0">
          <mxGeometry x="142.5" y="7.5" width="60" height="165" as="geometry" />
        </mxCell>
        <mxCell id="C6O-z1yzapiZi0vQyAfG-8" value="0" style="whiteSpace=wrap;html=1;fontSize=18;fillColor=#dae8fc;strokeColor=#6c8ebf;container=0;" vertex="1" parent="C6O-z1yzapiZi0vQyAfG-0">
          <mxGeometry x="7.5" y="7.5" width="60" height="165" as="geometry" />
        </mxCell>
        <mxCell id="C6O-z1yzapiZi0vQyAfG-9" value="0" style="rounded=0;whiteSpace=wrap;html=1;fillColor=#dae8fc;strokeColor=#6c8ebf;fontSize=18;container=0;" vertex="1" parent="C6O-z1yzapiZi0vQyAfG-39">
          <mxGeometry x="202.5" y="45" width="277.5" height="180" as="geometry" />
        </mxCell>
        <mxCell id="C6O-z1yzapiZi0vQyAfG-10" value="" style="group;fontSize=18;" vertex="1" connectable="0" parent="C6O-z1yzapiZi0vQyAfG-39">
          <mxGeometry x="82.5" y="135" width="337.5" height="180" as="geometry" />
        </mxCell>
        <mxCell id="C6O-z1yzapiZi0vQyAfG-11" value="0" style="rounded=0;whiteSpace=wrap;html=1;fillColor=#dae8fc;strokeColor=#6c8ebf;fontSize=18;container=0;" vertex="1" parent="C6O-z1yzapiZi0vQyAfG-10">
          <mxGeometry x="60" y="-45" width="277.5" height="180" as="geometry" />
        </mxCell>
        <mxCell id="C6O-z1yzapiZi0vQyAfG-12" value="" style="rounded=0;whiteSpace=wrap;html=1;fillColor=#dae8fc;strokeColor=#6c8ebf;fontSize=18;container=0;" vertex="1" parent="C6O-z1yzapiZi0vQyAfG-10">
          <mxGeometry width="277.5" height="180" as="geometry" />
        </mxCell>
        <mxCell id="C6O-z1yzapiZi0vQyAfG-13" value="" style="rounded=0;whiteSpace=wrap;html=1;fontSize=18;container=0;" vertex="1" parent="C6O-z1yzapiZi0vQyAfG-10">
          <mxGeometry x="7.5" y="7.5" width="60" height="165" as="geometry" />
        </mxCell>
        <mxCell id="C6O-z1yzapiZi0vQyAfG-14" value="&lt;span style=&quot;color: rgb(0, 0, 0); font-family: Helvetica; font-size: 18px; font-style: normal; font-variant-ligatures: normal; font-variant-caps: normal; font-weight: 400; letter-spacing: normal; orphans: 2; text-align: center; text-indent: 0px; text-transform: none; widows: 2; word-spacing: 0px; -webkit-text-stroke-width: 0px; background-color: rgb(251, 251, 251); text-decoration-thickness: initial; text-decoration-style: initial; text-decoration-color: initial; float: none; display: inline !important;&quot;&gt;7.7&lt;/span&gt;" style="whiteSpace=wrap;html=1;aspect=fixed;fontSize=18;container=0;" vertex="1" parent="C6O-z1yzapiZi0vQyAfG-10">
          <mxGeometry x="15" y="15" width="45" height="45" as="geometry" />
        </mxCell>
        <mxCell id="C6O-z1yzapiZi0vQyAfG-15" value="0" style="whiteSpace=wrap;html=1;fontSize=18;fillColor=#dae8fc;strokeColor=#6c8ebf;container=0;" vertex="1" parent="C6O-z1yzapiZi0vQyAfG-10">
          <mxGeometry x="75" y="7.5" width="60" height="165" as="geometry" />
        </mxCell>
        <mxCell id="C6O-z1yzapiZi0vQyAfG-16" value="&lt;span style=&quot;color: rgb(0, 0, 0); font-family: Helvetica; font-size: 18px; font-style: normal; font-variant-ligatures: normal; font-variant-caps: normal; font-weight: 400; letter-spacing: normal; orphans: 2; text-align: center; text-indent: 0px; text-transform: none; widows: 2; word-spacing: 0px; -webkit-text-stroke-width: 0px; background-color: rgb(251, 251, 251); text-decoration-thickness: initial; text-decoration-style: initial; text-decoration-color: initial; float: none; display: inline !important;&quot;&gt;8.8&lt;/span&gt;" style="whiteSpace=wrap;html=1;aspect=fixed;fontSize=18;container=0;" vertex="1" parent="C6O-z1yzapiZi0vQyAfG-10">
          <mxGeometry x="15" y="67.5" width="45" height="45" as="geometry" />
        </mxCell>
        <mxCell id="C6O-z1yzapiZi0vQyAfG-17" value="&lt;span style=&quot;color: rgb(0, 0, 0); font-family: Helvetica; font-size: 18px; font-style: normal; font-variant-ligatures: normal; font-variant-caps: normal; font-weight: 400; letter-spacing: normal; orphans: 2; text-align: center; text-indent: 0px; text-transform: none; widows: 2; word-spacing: 0px; -webkit-text-stroke-width: 0px; background-color: rgb(251, 251, 251); text-decoration-thickness: initial; text-decoration-style: initial; text-decoration-color: initial; float: none; display: inline !important;&quot;&gt;9.9&lt;/span&gt;" style="whiteSpace=wrap;html=1;aspect=fixed;fontSize=18;container=0;" vertex="1" parent="C6O-z1yzapiZi0vQyAfG-10">
          <mxGeometry x="15" y="120" width="45" height="45" as="geometry" />
        </mxCell>
        <mxCell id="C6O-z1yzapiZi0vQyAfG-18" value="" style="rounded=0;whiteSpace=wrap;html=1;fontSize=18;container=0;" vertex="1" parent="C6O-z1yzapiZi0vQyAfG-10">
          <mxGeometry x="210" y="7.5" width="60" height="165" as="geometry" />
        </mxCell>
        <mxCell id="C6O-z1yzapiZi0vQyAfG-19" value="&lt;span style=&quot;color: rgb(0, 0, 0); font-family: Helvetica; font-size: 18px; font-style: normal; font-variant-ligatures: normal; font-variant-caps: normal; font-weight: 400; letter-spacing: normal; orphans: 2; text-align: center; text-indent: 0px; text-transform: none; widows: 2; word-spacing: 0px; -webkit-text-stroke-width: 0px; background-color: rgb(251, 251, 251); text-decoration-thickness: initial; text-decoration-style: initial; text-decoration-color: initial; float: none; display: inline !important;&quot;&gt;10.0&lt;/span&gt;" style="whiteSpace=wrap;html=1;aspect=fixed;fontSize=18;container=0;" vertex="1" parent="C6O-z1yzapiZi0vQyAfG-10">
          <mxGeometry x="217.5" y="15" width="45" height="45" as="geometry" />
        </mxCell>
        <mxCell id="C6O-z1yzapiZi0vQyAfG-20" value="&lt;span style=&quot;color: rgb(0, 0, 0); font-family: Helvetica; font-size: 18px; font-style: normal; font-variant-ligatures: normal; font-variant-caps: normal; font-weight: 400; letter-spacing: normal; orphans: 2; text-align: center; text-indent: 0px; text-transform: none; widows: 2; word-spacing: 0px; -webkit-text-stroke-width: 0px; background-color: rgb(251, 251, 251); text-decoration-thickness: initial; text-decoration-style: initial; text-decoration-color: initial; float: none; display: inline !important;&quot;&gt;11.1&lt;/span&gt;" style="whiteSpace=wrap;html=1;aspect=fixed;fontSize=18;container=0;" vertex="1" parent="C6O-z1yzapiZi0vQyAfG-10">
          <mxGeometry x="217.5" y="67.5" width="45" height="45" as="geometry" />
        </mxCell>
        <mxCell id="C6O-z1yzapiZi0vQyAfG-21" value="&lt;span style=&quot;color: rgb(0, 0, 0); font-family: Helvetica; font-size: 18px; font-style: normal; font-variant-ligatures: normal; font-variant-caps: normal; font-weight: 400; letter-spacing: normal; orphans: 2; text-align: center; text-indent: 0px; text-transform: none; widows: 2; word-spacing: 0px; -webkit-text-stroke-width: 0px; background-color: rgb(251, 251, 251); text-decoration-thickness: initial; text-decoration-style: initial; text-decoration-color: initial; float: none; display: inline !important;&quot;&gt;12.2&lt;/span&gt;" style="whiteSpace=wrap;html=1;aspect=fixed;fontSize=18;container=0;" vertex="1" parent="C6O-z1yzapiZi0vQyAfG-10">
          <mxGeometry x="217.5" y="120" width="45" height="45" as="geometry" />
        </mxCell>
        <mxCell id="C6O-z1yzapiZi0vQyAfG-22" value="0" style="whiteSpace=wrap;html=1;fontSize=18;fillColor=#dae8fc;strokeColor=#6c8ebf;container=0;" vertex="1" parent="C6O-z1yzapiZi0vQyAfG-10">
          <mxGeometry x="142.5" y="7.5" width="60" height="165" as="geometry" />
        </mxCell>
        <mxCell id="C6O-z1yzapiZi0vQyAfG-23" value="" style="group;fontSize=18;" vertex="1" connectable="0" parent="C6O-z1yzapiZi0vQyAfG-39">
          <mxGeometry x="22.5" y="180" width="277.5" height="180" as="geometry" />
        </mxCell>
        <mxCell id="C6O-z1yzapiZi0vQyAfG-24" value="" style="rounded=0;whiteSpace=wrap;html=1;fillColor=#dae8fc;strokeColor=#6c8ebf;fontSize=18;container=0;" vertex="1" parent="C6O-z1yzapiZi0vQyAfG-23">
          <mxGeometry width="277.5" height="180" as="geometry" />
        </mxCell>
        <mxCell id="C6O-z1yzapiZi0vQyAfG-25" value="" style="rounded=0;whiteSpace=wrap;html=1;fontSize=18;container=0;" vertex="1" parent="C6O-z1yzapiZi0vQyAfG-23">
          <mxGeometry x="7.5" y="7.5" width="60" height="165" as="geometry" />
        </mxCell>
        <mxCell id="C6O-z1yzapiZi0vQyAfG-26" value="&lt;span style=&quot;color: rgb(0, 0, 0); font-family: Helvetica; font-size: 18px; font-style: normal; font-variant-ligatures: normal; font-variant-caps: normal; font-weight: 400; letter-spacing: normal; orphans: 2; text-align: center; text-indent: 0px; text-transform: none; widows: 2; word-spacing: 0px; -webkit-text-stroke-width: 0px; background-color: rgb(251, 251, 251); text-decoration-thickness: initial; text-decoration-style: initial; text-decoration-color: initial; float: none; display: inline !important;&quot;&gt;1.1&lt;/span&gt;" style="whiteSpace=wrap;html=1;aspect=fixed;fontSize=18;container=0;" vertex="1" parent="C6O-z1yzapiZi0vQyAfG-23">
          <mxGeometry x="15" y="15" width="45" height="45" as="geometry" />
        </mxCell>
        <mxCell id="C6O-z1yzapiZi0vQyAfG-27" value="0" style="whiteSpace=wrap;html=1;fontSize=18;fillColor=#dae8fc;strokeColor=#6c8ebf;container=0;" vertex="1" parent="C6O-z1yzapiZi0vQyAfG-23">
          <mxGeometry x="75" y="7.5" width="60" height="165" as="geometry" />
        </mxCell>
        <mxCell id="C6O-z1yzapiZi0vQyAfG-28" value="&lt;span style=&quot;color: rgb(0, 0, 0); font-family: Helvetica; font-size: 18px; font-style: normal; font-variant-ligatures: normal; font-variant-caps: normal; font-weight: 400; letter-spacing: normal; orphans: 2; text-align: center; text-indent: 0px; text-transform: none; widows: 2; word-spacing: 0px; -webkit-text-stroke-width: 0px; background-color: rgb(251, 251, 251); text-decoration-thickness: initial; text-decoration-style: initial; text-decoration-color: initial; float: none; display: inline !important;&quot;&gt;2.2&lt;/span&gt;" style="whiteSpace=wrap;html=1;aspect=fixed;fontSize=18;container=0;" vertex="1" parent="C6O-z1yzapiZi0vQyAfG-23">
          <mxGeometry x="15" y="67.5" width="45" height="45" as="geometry" />
        </mxCell>
        <mxCell id="C6O-z1yzapiZi0vQyAfG-29" value="&lt;span style=&quot;color: rgb(0, 0, 0); font-family: Helvetica; font-size: 18px; font-style: normal; font-variant-ligatures: normal; font-variant-caps: normal; font-weight: 400; letter-spacing: normal; orphans: 2; text-align: center; text-indent: 0px; text-transform: none; widows: 2; word-spacing: 0px; -webkit-text-stroke-width: 0px; background-color: rgb(251, 251, 251); text-decoration-thickness: initial; text-decoration-style: initial; text-decoration-color: initial; float: none; display: inline !important;&quot;&gt;3.3&lt;/span&gt;" style="whiteSpace=wrap;html=1;aspect=fixed;fontSize=18;container=0;" vertex="1" parent="C6O-z1yzapiZi0vQyAfG-23">
          <mxGeometry x="15" y="120" width="45" height="45" as="geometry" />
        </mxCell>
        <mxCell id="C6O-z1yzapiZi0vQyAfG-30" value="" style="rounded=0;whiteSpace=wrap;html=1;fontSize=18;container=0;" vertex="1" parent="C6O-z1yzapiZi0vQyAfG-23">
          <mxGeometry x="142.5" y="7.5" width="60" height="165" as="geometry" />
        </mxCell>
        <mxCell id="C6O-z1yzapiZi0vQyAfG-31" value="&lt;span style=&quot;color: rgb(0, 0, 0); font-family: Helvetica; font-size: 18px; font-style: normal; font-variant-ligatures: normal; font-variant-caps: normal; font-weight: 400; letter-spacing: normal; orphans: 2; text-align: center; text-indent: 0px; text-transform: none; widows: 2; word-spacing: 0px; -webkit-text-stroke-width: 0px; background-color: rgb(251, 251, 251); text-decoration-thickness: initial; text-decoration-style: initial; text-decoration-color: initial; float: none; display: inline !important;&quot;&gt;4.4&lt;/span&gt;" style="whiteSpace=wrap;html=1;aspect=fixed;fontSize=18;container=0;" vertex="1" parent="C6O-z1yzapiZi0vQyAfG-23">
          <mxGeometry x="150" y="15" width="45" height="45" as="geometry" />
        </mxCell>
        <mxCell id="C6O-z1yzapiZi0vQyAfG-32" value="&lt;span style=&quot;color: rgb(0, 0, 0); font-family: Helvetica; font-size: 18px; font-style: normal; font-variant-ligatures: normal; font-variant-caps: normal; font-weight: 400; letter-spacing: normal; orphans: 2; text-align: center; text-indent: 0px; text-transform: none; widows: 2; word-spacing: 0px; -webkit-text-stroke-width: 0px; background-color: rgb(251, 251, 251); text-decoration-thickness: initial; text-decoration-style: initial; text-decoration-color: initial; float: none; display: inline !important;&quot;&gt;5.5&lt;/span&gt;" style="whiteSpace=wrap;html=1;aspect=fixed;fontSize=18;container=0;" vertex="1" parent="C6O-z1yzapiZi0vQyAfG-23">
          <mxGeometry x="150" y="67.5" width="45" height="45" as="geometry" />
        </mxCell>
        <mxCell id="C6O-z1yzapiZi0vQyAfG-33" value="&lt;span style=&quot;color: rgb(0, 0, 0); font-family: Helvetica; font-size: 18px; font-style: normal; font-variant-ligatures: normal; font-variant-caps: normal; font-weight: 400; letter-spacing: normal; orphans: 2; text-align: center; text-indent: 0px; text-transform: none; widows: 2; word-spacing: 0px; -webkit-text-stroke-width: 0px; background-color: rgb(251, 251, 251); text-decoration-thickness: initial; text-decoration-style: initial; text-decoration-color: initial; float: none; display: inline !important;&quot;&gt;6.6&lt;/span&gt;" style="whiteSpace=wrap;html=1;aspect=fixed;fontSize=18;container=0;" vertex="1" parent="C6O-z1yzapiZi0vQyAfG-23">
          <mxGeometry x="150" y="120" width="45" height="45" as="geometry" />
        </mxCell>
        <mxCell id="C6O-z1yzapiZi0vQyAfG-34" value="0" style="whiteSpace=wrap;html=1;fontSize=18;fillColor=#dae8fc;strokeColor=#6c8ebf;container=0;" vertex="1" parent="C6O-z1yzapiZi0vQyAfG-23">
          <mxGeometry x="210" y="7.5" width="60" height="165" as="geometry" />
        </mxCell>
        <mxCell id="C6O-z1yzapiZi0vQyAfG-36" value="&lt;span style=&quot;color: rgb(0, 0, 0); font-family: Helvetica; font-size: 18px; font-style: normal; font-variant-ligatures: normal; font-variant-caps: normal; font-weight: 400; letter-spacing: normal; orphans: 2; text-align: center; text-indent: 0px; text-transform: none; widows: 2; word-spacing: 0px; -webkit-text-stroke-width: 0px; white-space: normal; background-color: rgb(255, 255, 255); text-decoration-thickness: initial; text-decoration-style: initial; text-decoration-color: initial; float: none; display: inline !important;&quot;&gt;&amp;nbsp;j&amp;nbsp;&lt;/span&gt;" style="shape=crossbar;whiteSpace=wrap;html=1;rounded=1;labelBackgroundColor=#dae8fc;fontSize=18;container=0;" vertex="1" parent="C6O-z1yzapiZi0vQyAfG-39">
          <mxGeometry x="22.5" y="367.5" width="277.5" height="22.5" as="geometry" />
        </mxCell>
        <mxCell id="C6O-z1yzapiZi0vQyAfG-37" value="k" style="shape=crossbar;whiteSpace=wrap;html=1;rounded=1;direction=south;labelBackgroundColor=#FFFFFF;fontSize=18;" vertex="1" parent="C6O-z1yzapiZi0vQyAfG-39">
          <mxGeometry y="180" width="15" height="180" as="geometry" />
        </mxCell>
        <mxCell id="n7xQcbaUSshw66UQfYZQ-0" value="The Tensor:" style="whiteSpace=wrap;html=1;fontSize=24;container=0;" vertex="1" parent="rejoIrjV7qq8w0lhNhuF-1">
          <mxGeometry x="770" y="-160" width="250" height="80" as="geometry" />
        </mxCell>
      </root>
    </mxGraphModel>
  </diagram>
  <diagram id="9rG_qt1_hGokVb0xwrqb" name="MatrixFiberTree">
    <mxGraphModel dx="1434" dy="1757" grid="1" gridSize="10" guides="0" tooltips="1" connect="1" arrows="1" fold="1" page="1" pageScale="1" pageWidth="1100" pageHeight="850" math="0" shadow="0">
      <root>
        <mxCell id="0" />
        <mxCell id="1" parent="0" />
        <mxCell id="Pi3_3-QVqJVyEyYOB8Ng-14" value="" style="rounded=0;whiteSpace=wrap;html=1;fillColor=#dae8fc;strokeColor=#6c8ebf;fontSize=24;container=0;" vertex="1" parent="1">
          <mxGeometry x="310" y="370" width="930" height="160" as="geometry" />
        </mxCell>
        <mxCell id="Pi3_3-QVqJVyEyYOB8Ng-13" value="" style="rounded=0;whiteSpace=wrap;html=1;fillColor=#dae8fc;strokeColor=#6c8ebf;fontSize=24;container=0;" vertex="1" parent="1">
          <mxGeometry x="314" y="110" width="390" height="170" as="geometry" />
        </mxCell>
        <mxCell id="d5O5c1oWy_LdGigZXwmF-1" value="Dense Level" style="whiteSpace=wrap;html=1;fontSize=24;container=0;" vertex="1" parent="1">
          <mxGeometry x="20" y="110" width="250" height="170" as="geometry" />
        </mxCell>
        <mxCell id="d5O5c1oWy_LdGigZXwmF-2" value="" style="rounded=0;whiteSpace=wrap;html=1;fontSize=24;container=0;" vertex="1" parent="1">
          <mxGeometry x="322.5" y="167" width="370" height="100" as="geometry" />
        </mxCell>
        <mxCell id="Pi3_3-QVqJVyEyYOB8Ng-32" style="edgeStyle=orthogonalEdgeStyle;rounded=0;orthogonalLoop=1;jettySize=auto;html=1;exitX=0.5;exitY=1;exitDx=0;exitDy=0;" edge="1" parent="1" source="d5O5c1oWy_LdGigZXwmF-4" target="Pi3_3-QVqJVyEyYOB8Ng-28">
          <mxGeometry relative="1" as="geometry">
            <Array as="points">
              <mxPoint x="463" y="310" />
              <mxPoint x="660" y="310" />
            </Array>
          </mxGeometry>
        </mxCell>
        <mxCell id="d5O5c1oWy_LdGigZXwmF-4" value="" style="whiteSpace=wrap;html=1;aspect=fixed;fontSize=24;container=0;" vertex="1" parent="1">
          <mxGeometry x="422.5" y="177" width="80" height="80" as="geometry" />
        </mxCell>
        <mxCell id="Pi3_3-QVqJVyEyYOB8Ng-31" style="edgeStyle=orthogonalEdgeStyle;rounded=0;orthogonalLoop=1;jettySize=auto;html=1;exitX=0.5;exitY=1;exitDx=0;exitDy=0;" edge="1" parent="1" source="d5O5c1oWy_LdGigZXwmF-6" target="Pi3_3-QVqJVyEyYOB8Ng-26">
          <mxGeometry relative="1" as="geometry">
            <Array as="points">
              <mxPoint x="373" y="320" />
              <mxPoint x="430" y="320" />
            </Array>
          </mxGeometry>
        </mxCell>
        <mxCell id="d5O5c1oWy_LdGigZXwmF-6" value="" style="whiteSpace=wrap;html=1;aspect=fixed;fontSize=24;container=0;" vertex="1" parent="1">
          <mxGeometry x="332.5" y="177" width="80" height="80" as="geometry" />
        </mxCell>
        <mxCell id="Pi3_3-QVqJVyEyYOB8Ng-33" style="edgeStyle=orthogonalEdgeStyle;rounded=0;orthogonalLoop=1;jettySize=auto;html=1;exitX=0.5;exitY=1;exitDx=0;exitDy=0;" edge="1" parent="1" source="d5O5c1oWy_LdGigZXwmF-8" target="Pi3_3-QVqJVyEyYOB8Ng-29">
          <mxGeometry relative="1" as="geometry" />
        </mxCell>
        <mxCell id="d5O5c1oWy_LdGigZXwmF-8" value="" style="whiteSpace=wrap;html=1;aspect=fixed;fontSize=24;container=0;" vertex="1" parent="1">
          <mxGeometry x="512.5" y="177" width="80" height="80" as="geometry" />
        </mxCell>
        <mxCell id="Pi3_3-QVqJVyEyYOB8Ng-34" style="edgeStyle=orthogonalEdgeStyle;rounded=0;orthogonalLoop=1;jettySize=auto;html=1;exitX=0.5;exitY=1;exitDx=0;exitDy=0;" edge="1" parent="1" source="d5O5c1oWy_LdGigZXwmF-10" target="Pi3_3-QVqJVyEyYOB8Ng-30">
          <mxGeometry relative="1" as="geometry">
            <Array as="points">
              <mxPoint x="643" y="290" />
              <mxPoint x="1120" y="290" />
            </Array>
          </mxGeometry>
        </mxCell>
        <mxCell id="d5O5c1oWy_LdGigZXwmF-10" value="" style="whiteSpace=wrap;html=1;aspect=fixed;fontSize=24;container=0;" vertex="1" parent="1">
          <mxGeometry x="602.5" y="177" width="80" height="80" as="geometry" />
        </mxCell>
        <mxCell id="d5O5c1oWy_LdGigZXwmF-60" value="Sparse Level" style="whiteSpace=wrap;html=1;fontSize=24;container=0;" vertex="1" parent="1">
          <mxGeometry x="20" y="370" width="250" height="160" as="geometry" />
        </mxCell>
        <mxCell id="9vm0sO92znZHTp-NA5ZQ-83" value="&amp;nbsp;j&amp;nbsp;" style="shape=crossbar;whiteSpace=wrap;html=1;rounded=1;labelBackgroundColor=#dae8fc;fontSize=25;container=0;" vertex="1" parent="1">
          <mxGeometry x="324" y="120" width="370" height="30" as="geometry" />
        </mxCell>
        <mxCell id="9vm0sO92znZHTp-NA5ZQ-84" value="2" style="text;html=1;align=center;verticalAlign=middle;resizable=1;points=[];autosize=1;strokeColor=none;fillColor=none;fontSize=18;movable=1;rotatable=1;deletable=1;editable=1;locked=0;connectable=1;" vertex="1" parent="1">
          <mxGeometry x="434" y="137" width="50" height="40" as="geometry" />
        </mxCell>
        <mxCell id="9vm0sO92znZHTp-NA5ZQ-85" value="1" style="text;html=1;align=center;verticalAlign=middle;resizable=1;points=[];autosize=1;strokeColor=none;fillColor=none;fontSize=18;movable=1;rotatable=1;deletable=1;editable=1;locked=0;connectable=1;" vertex="1" parent="1">
          <mxGeometry x="344" y="137" width="56.36" height="30" as="geometry" />
        </mxCell>
        <mxCell id="9vm0sO92znZHTp-NA5ZQ-86" value="3" style="text;html=1;align=center;verticalAlign=middle;resizable=1;points=[];autosize=1;strokeColor=none;fillColor=none;fontSize=18;movable=1;rotatable=1;deletable=1;editable=1;locked=0;connectable=1;" vertex="1" parent="1">
          <mxGeometry x="524" y="137" width="60" height="40" as="geometry" />
        </mxCell>
        <mxCell id="9vm0sO92znZHTp-NA5ZQ-87" value="4" style="text;html=1;align=center;verticalAlign=middle;resizable=1;points=[];autosize=1;strokeColor=none;fillColor=none;fontSize=18;movable=1;rotatable=1;deletable=1;editable=1;locked=0;connectable=1;" vertex="1" parent="1">
          <mxGeometry x="629" y="137" width="30" height="40" as="geometry" />
        </mxCell>
        <mxCell id="UT5u8YVRd8UqBXj_3nrR-2" value="Positions:" style="text;html=1;align=center;verticalAlign=middle;resizable=0;points=[];autosize=1;strokeColor=none;fillColor=none;fontSize=24;" vertex="1" parent="1">
          <mxGeometry x="180" y="330" width="130" height="40" as="geometry" />
        </mxCell>
        <mxCell id="9vm0sO92znZHTp-NA5ZQ-17" value="" style="rounded=0;whiteSpace=wrap;html=1;fontSize=24;" vertex="1" parent="1">
          <mxGeometry x="550" y="440" width="220" height="80" as="geometry" />
        </mxCell>
        <mxCell id="9vm0sO92znZHTp-NA5ZQ-6" value="&lt;span style=&quot;color: rgb(0, 0, 0); font-family: Helvetica; font-size: 24px; font-style: normal; font-variant-ligatures: normal; font-variant-caps: normal; font-weight: 400; letter-spacing: normal; orphans: 2; text-align: center; text-indent: 0px; text-transform: none; widows: 2; word-spacing: 0px; -webkit-text-stroke-width: 0px; text-decoration-thickness: initial; text-decoration-style: initial; text-decoration-color: initial; float: none; display: inline !important;&quot;&gt;0&lt;/span&gt;" style="whiteSpace=wrap;html=1;aspect=fixed;fontSize=24;fillColor=#dae8fc;strokeColor=#6c8ebf;labelBackgroundColor=none;" vertex="1" parent="1">
          <mxGeometry x="560" y="450" width="60" height="60" as="geometry" />
        </mxCell>
        <mxCell id="9vm0sO92znZHTp-NA5ZQ-7" value="&lt;span style=&quot;color: rgb(0, 0, 0); font-family: Helvetica; font-size: 24px; font-style: normal; font-variant-ligatures: normal; font-variant-caps: normal; font-weight: 400; letter-spacing: normal; orphans: 2; text-align: center; text-indent: 0px; text-transform: none; widows: 2; word-spacing: 0px; -webkit-text-stroke-width: 0px; text-decoration-thickness: initial; text-decoration-style: initial; text-decoration-color: initial; float: none; display: inline !important;&quot;&gt;0&lt;/span&gt;" style="whiteSpace=wrap;html=1;aspect=fixed;fontSize=24;fillColor=#dae8fc;strokeColor=#6c8ebf;labelBackgroundColor=none;" vertex="1" parent="1">
          <mxGeometry x="700" y="450" width="60" height="60" as="geometry" />
        </mxCell>
        <mxCell id="Pi3_3-QVqJVyEyYOB8Ng-19" style="edgeStyle=orthogonalEdgeStyle;rounded=0;orthogonalLoop=1;jettySize=auto;html=1;exitX=0.5;exitY=1;exitDx=0;exitDy=0;" edge="1" parent="1" source="9vm0sO92znZHTp-NA5ZQ-8" target="Pi3_3-QVqJVyEyYOB8Ng-8">
          <mxGeometry relative="1" as="geometry" />
        </mxCell>
        <mxCell id="9vm0sO92znZHTp-NA5ZQ-8" value="" style="whiteSpace=wrap;html=1;aspect=fixed;fontSize=24;" vertex="1" parent="1">
          <mxGeometry x="630" y="450" width="60" height="60" as="geometry" />
        </mxCell>
        <mxCell id="Pi3_3-QVqJVyEyYOB8Ng-1" value="" style="rounded=0;whiteSpace=wrap;html=1;fillColor=#dae8fc;strokeColor=#6c8ebf;fontSize=24;" vertex="1" parent="1">
          <mxGeometry x="320" y="620" width="290" height="80" as="geometry" />
        </mxCell>
        <mxCell id="Pi3_3-QVqJVyEyYOB8Ng-2" value="Element Level" style="whiteSpace=wrap;html=1;fontSize=24;container=0;" vertex="1" parent="1">
          <mxGeometry x="20" y="620" width="250" height="80" as="geometry" />
        </mxCell>
        <mxCell id="Pi3_3-QVqJVyEyYOB8Ng-3" value="9.9" style="whiteSpace=wrap;html=1;aspect=fixed;fontSize=24;labelBackgroundColor=none;" vertex="1" parent="1">
          <mxGeometry x="540" y="630" width="60" height="60" as="geometry" />
        </mxCell>
        <mxCell id="Pi3_3-QVqJVyEyYOB8Ng-4" value="6.6" style="whiteSpace=wrap;html=1;aspect=fixed;fontSize=24;" vertex="1" parent="1">
          <mxGeometry x="400" y="630" width="60" height="60" as="geometry" />
        </mxCell>
        <mxCell id="Pi3_3-QVqJVyEyYOB8Ng-5" value="3.3" style="whiteSpace=wrap;html=1;aspect=fixed;fontSize=24;" vertex="1" parent="1">
          <mxGeometry x="330" y="630" width="60" height="60" as="geometry" />
        </mxCell>
        <mxCell id="Pi3_3-QVqJVyEyYOB8Ng-6" value="&lt;span style=&quot;color: rgb(0, 0, 0); font-family: Helvetica; font-size: 24px; font-style: normal; font-variant-ligatures: normal; font-variant-caps: normal; font-weight: 400; letter-spacing: normal; orphans: 2; text-align: center; text-indent: 0px; text-transform: none; widows: 2; word-spacing: 0px; -webkit-text-stroke-width: 0px; background-color: rgb(251, 251, 251); text-decoration-thickness: initial; text-decoration-style: initial; text-decoration-color: initial; float: none; display: inline !important;&quot;&gt;7.7&lt;/span&gt;" style="whiteSpace=wrap;html=1;aspect=fixed;fontSize=24;" vertex="1" parent="1">
          <mxGeometry x="470" y="630" width="60" height="60" as="geometry" />
        </mxCell>
        <mxCell id="Pi3_3-QVqJVyEyYOB8Ng-8" value="2" style="text;html=1;align=center;verticalAlign=middle;resizable=1;points=[];autosize=1;strokeColor=none;fillColor=none;fontSize=18;movable=1;rotatable=1;deletable=1;editable=1;locked=0;connectable=1;" vertex="1" parent="1">
          <mxGeometry x="400" y="590" width="60" height="40" as="geometry" />
        </mxCell>
        <mxCell id="Pi3_3-QVqJVyEyYOB8Ng-9" value="1" style="text;html=1;align=center;verticalAlign=middle;resizable=1;points=[];autosize=1;strokeColor=none;fillColor=none;fontSize=18;movable=1;rotatable=1;deletable=1;editable=1;locked=0;connectable=1;" vertex="1" parent="1">
          <mxGeometry x="330" y="590" width="60" height="40" as="geometry" />
        </mxCell>
        <mxCell id="Pi3_3-QVqJVyEyYOB8Ng-10" value="3" style="text;html=1;align=center;verticalAlign=middle;resizable=1;points=[];autosize=1;strokeColor=none;fillColor=none;fontSize=18;movable=1;rotatable=1;deletable=1;editable=1;locked=0;connectable=1;" vertex="1" parent="1">
          <mxGeometry x="470" y="590" width="60" height="40" as="geometry" />
        </mxCell>
        <mxCell id="Pi3_3-QVqJVyEyYOB8Ng-11" value="4" style="text;html=1;align=center;verticalAlign=middle;resizable=1;points=[];autosize=1;strokeColor=none;fillColor=none;fontSize=18;movable=1;rotatable=1;deletable=1;editable=1;locked=0;connectable=1;" vertex="1" parent="1">
          <mxGeometry x="540" y="590" width="60" height="40" as="geometry" />
        </mxCell>
        <mxCell id="9vm0sO92znZHTp-NA5ZQ-18" value="" style="rounded=0;whiteSpace=wrap;html=1;fontSize=24;" vertex="1" parent="1">
          <mxGeometry x="780" y="440" width="220" height="80" as="geometry" />
        </mxCell>
        <mxCell id="9vm0sO92znZHTp-NA5ZQ-12" value="0" style="whiteSpace=wrap;html=1;aspect=fixed;fontSize=24;fillColor=#dae8fc;strokeColor=#6c8ebf;" vertex="1" parent="1">
          <mxGeometry x="790" y="450" width="60" height="60" as="geometry" />
        </mxCell>
        <mxCell id="9vm0sO92znZHTp-NA5ZQ-13" value="0" style="whiteSpace=wrap;html=1;aspect=fixed;fontSize=24;fillColor=#dae8fc;strokeColor=#6c8ebf;" vertex="1" parent="1">
          <mxGeometry x="859" y="450" width="60" height="60" as="geometry" />
        </mxCell>
        <mxCell id="9vm0sO92znZHTp-NA5ZQ-14" value="0" style="whiteSpace=wrap;html=1;aspect=fixed;fontSize=24;fillColor=#dae8fc;strokeColor=#6c8ebf;" vertex="1" parent="1">
          <mxGeometry x="930" y="450" width="60" height="60" as="geometry" />
        </mxCell>
        <mxCell id="9vm0sO92znZHTp-NA5ZQ-19" value="" style="rounded=0;whiteSpace=wrap;html=1;fontSize=24;" vertex="1" parent="1">
          <mxGeometry x="1010" y="440" width="220" height="80" as="geometry" />
        </mxCell>
        <mxCell id="9vm0sO92znZHTp-NA5ZQ-9" value="0" style="whiteSpace=wrap;html=1;aspect=fixed;fontSize=24;fillColor=#dae8fc;strokeColor=#6c8ebf;" vertex="1" parent="1">
          <mxGeometry x="1089" y="450" width="60" height="60" as="geometry" />
        </mxCell>
        <mxCell id="Pi3_3-QVqJVyEyYOB8Ng-20" style="edgeStyle=orthogonalEdgeStyle;rounded=0;orthogonalLoop=1;jettySize=auto;html=1;exitX=0.5;exitY=1;exitDx=0;exitDy=0;" edge="1" parent="1" source="9vm0sO92znZHTp-NA5ZQ-10" target="Pi3_3-QVqJVyEyYOB8Ng-10">
          <mxGeometry relative="1" as="geometry">
            <Array as="points">
              <mxPoint x="1050" y="560" />
              <mxPoint x="505" y="560" />
            </Array>
          </mxGeometry>
        </mxCell>
        <mxCell id="9vm0sO92znZHTp-NA5ZQ-10" value="" style="whiteSpace=wrap;html=1;aspect=fixed;fontSize=24;" vertex="1" parent="1">
          <mxGeometry x="1020" y="450" width="60" height="60" as="geometry" />
        </mxCell>
        <mxCell id="Pi3_3-QVqJVyEyYOB8Ng-22" style="edgeStyle=orthogonalEdgeStyle;rounded=0;orthogonalLoop=1;jettySize=auto;html=1;exitX=0.5;exitY=1;exitDx=0;exitDy=0;" edge="1" parent="1" source="9vm0sO92znZHTp-NA5ZQ-11" target="Pi3_3-QVqJVyEyYOB8Ng-11">
          <mxGeometry relative="1" as="geometry">
            <Array as="points">
              <mxPoint x="1190" y="570" />
              <mxPoint x="570" y="570" />
            </Array>
          </mxGeometry>
        </mxCell>
        <mxCell id="9vm0sO92znZHTp-NA5ZQ-11" value="" style="whiteSpace=wrap;html=1;aspect=fixed;fontSize=24;" vertex="1" parent="1">
          <mxGeometry x="1160" y="450" width="60" height="60" as="geometry" />
        </mxCell>
        <mxCell id="9vm0sO92znZHTp-NA5ZQ-2" value="" style="rounded=0;whiteSpace=wrap;html=1;fontSize=24;" vertex="1" parent="1">
          <mxGeometry x="320" y="440" width="220" height="80" as="geometry" />
        </mxCell>
        <mxCell id="9vm0sO92znZHTp-NA5ZQ-3" value="0" style="whiteSpace=wrap;html=1;aspect=fixed;fontSize=24;fillColor=#dae8fc;strokeColor=#6c8ebf;" vertex="1" parent="1">
          <mxGeometry x="400" y="450" width="60" height="60" as="geometry" />
        </mxCell>
        <mxCell id="9vm0sO92znZHTp-NA5ZQ-4" value="0" style="whiteSpace=wrap;html=1;aspect=fixed;fontSize=24;fillColor=#dae8fc;strokeColor=#6c8ebf;" vertex="1" parent="1">
          <mxGeometry x="330" y="450" width="60" height="60" as="geometry" />
        </mxCell>
        <mxCell id="Pi3_3-QVqJVyEyYOB8Ng-17" style="edgeStyle=orthogonalEdgeStyle;rounded=0;orthogonalLoop=1;jettySize=auto;html=1;exitX=0.5;exitY=1;exitDx=0;exitDy=0;" edge="1" parent="1" source="9vm0sO92znZHTp-NA5ZQ-5" target="Pi3_3-QVqJVyEyYOB8Ng-9">
          <mxGeometry relative="1" as="geometry">
            <Array as="points">
              <mxPoint x="500" y="540" />
              <mxPoint x="360" y="540" />
            </Array>
          </mxGeometry>
        </mxCell>
        <mxCell id="9vm0sO92znZHTp-NA5ZQ-5" value="" style="whiteSpace=wrap;html=1;aspect=fixed;fontSize=24;" vertex="1" parent="1">
          <mxGeometry x="470" y="450" width="60" height="60" as="geometry" />
        </mxCell>
        <mxCell id="9vm0sO92znZHTp-NA5ZQ-58" value="&amp;nbsp;i&amp;nbsp;" style="shape=crossbar;whiteSpace=wrap;html=1;rounded=1;labelBackgroundColor=#dae8fc;fontSize=25;container=0;" vertex="1" parent="1">
          <mxGeometry x="320" y="380" width="220" height="30" as="geometry" />
        </mxCell>
        <mxCell id="9vm0sO92znZHTp-NA5ZQ-59" value="2" style="text;html=1;align=center;verticalAlign=middle;resizable=1;points=[];autosize=1;strokeColor=none;fillColor=none;fontSize=18;movable=1;rotatable=1;deletable=1;editable=1;locked=0;connectable=1;" vertex="1" parent="1">
          <mxGeometry x="415" y="410" width="30" height="40" as="geometry" />
        </mxCell>
        <mxCell id="9vm0sO92znZHTp-NA5ZQ-60" value="1" style="text;html=1;align=center;verticalAlign=middle;resizable=1;points=[];autosize=1;strokeColor=none;fillColor=none;fontSize=18;movable=1;rotatable=1;deletable=1;editable=1;locked=0;connectable=1;" vertex="1" parent="1">
          <mxGeometry x="340" y="415" width="40" height="30" as="geometry" />
        </mxCell>
        <mxCell id="9vm0sO92znZHTp-NA5ZQ-61" value="3" style="text;html=1;align=center;verticalAlign=middle;resizable=1;points=[];autosize=1;strokeColor=none;fillColor=none;fontSize=18;movable=1;rotatable=1;deletable=1;editable=1;locked=0;connectable=1;" vertex="1" parent="1">
          <mxGeometry x="485" y="410" width="30" height="40" as="geometry" />
        </mxCell>
        <mxCell id="9vm0sO92znZHTp-NA5ZQ-63" value="&amp;nbsp;i&amp;nbsp;" style="shape=crossbar;whiteSpace=wrap;html=1;rounded=1;labelBackgroundColor=#dae8fc;fontSize=25;container=0;" vertex="1" parent="1">
          <mxGeometry x="550" y="380" width="220" height="30" as="geometry" />
        </mxCell>
        <mxCell id="9vm0sO92znZHTp-NA5ZQ-64" value="2" style="text;html=1;align=center;verticalAlign=middle;resizable=1;points=[];autosize=1;strokeColor=none;fillColor=none;fontSize=18;movable=1;rotatable=1;deletable=1;editable=1;locked=0;connectable=1;" vertex="1" parent="1">
          <mxGeometry x="645" y="410" width="30" height="40" as="geometry" />
        </mxCell>
        <mxCell id="9vm0sO92znZHTp-NA5ZQ-65" value="1" style="text;html=1;align=center;verticalAlign=middle;resizable=1;points=[];autosize=1;strokeColor=none;fillColor=none;fontSize=18;movable=1;rotatable=1;deletable=1;editable=1;locked=0;connectable=1;" vertex="1" parent="1">
          <mxGeometry x="570" y="415" width="40" height="30" as="geometry" />
        </mxCell>
        <mxCell id="9vm0sO92znZHTp-NA5ZQ-66" value="3" style="text;html=1;align=center;verticalAlign=middle;resizable=1;points=[];autosize=1;strokeColor=none;fillColor=none;fontSize=18;movable=1;rotatable=1;deletable=1;editable=1;locked=0;connectable=1;" vertex="1" parent="1">
          <mxGeometry x="715" y="410" width="30" height="40" as="geometry" />
        </mxCell>
        <mxCell id="9vm0sO92znZHTp-NA5ZQ-35" value="&amp;nbsp;i&amp;nbsp;" style="shape=crossbar;whiteSpace=wrap;html=1;rounded=1;labelBackgroundColor=#dae8fc;fontSize=25;container=0;" vertex="1" parent="1">
          <mxGeometry x="1010" y="380" width="220" height="30" as="geometry" />
        </mxCell>
        <mxCell id="9vm0sO92znZHTp-NA5ZQ-36" value="2" style="text;html=1;align=center;verticalAlign=middle;resizable=1;points=[];autosize=1;strokeColor=none;fillColor=none;fontSize=18;movable=1;rotatable=1;deletable=1;editable=1;locked=0;connectable=1;" vertex="1" parent="1">
          <mxGeometry x="1105" y="410" width="30" height="40" as="geometry" />
        </mxCell>
        <mxCell id="9vm0sO92znZHTp-NA5ZQ-37" value="1" style="text;html=1;align=center;verticalAlign=middle;resizable=1;points=[];autosize=1;strokeColor=none;fillColor=none;fontSize=18;movable=1;rotatable=1;deletable=1;editable=1;locked=0;connectable=1;" vertex="1" parent="1">
          <mxGeometry x="1030" y="415" width="40" height="30" as="geometry" />
        </mxCell>
        <mxCell id="9vm0sO92znZHTp-NA5ZQ-38" value="3" style="text;html=1;align=center;verticalAlign=middle;resizable=1;points=[];autosize=1;strokeColor=none;fillColor=none;fontSize=18;movable=1;rotatable=1;deletable=1;editable=1;locked=0;connectable=1;" vertex="1" parent="1">
          <mxGeometry x="1175" y="410" width="30" height="40" as="geometry" />
        </mxCell>
        <mxCell id="9vm0sO92znZHTp-NA5ZQ-68" value="&amp;nbsp;i&amp;nbsp;" style="shape=crossbar;whiteSpace=wrap;html=1;rounded=1;labelBackgroundColor=#dae8fc;fontSize=25;container=0;" vertex="1" parent="1">
          <mxGeometry x="780" y="380" width="220" height="30" as="geometry" />
        </mxCell>
        <mxCell id="9vm0sO92znZHTp-NA5ZQ-69" value="2" style="text;html=1;align=center;verticalAlign=middle;resizable=1;points=[];autosize=1;strokeColor=none;fillColor=none;fontSize=18;movable=1;rotatable=1;deletable=1;editable=1;locked=0;connectable=1;" vertex="1" parent="1">
          <mxGeometry x="875" y="410" width="30" height="40" as="geometry" />
        </mxCell>
        <mxCell id="9vm0sO92znZHTp-NA5ZQ-70" value="1" style="text;html=1;align=center;verticalAlign=middle;resizable=1;points=[];autosize=1;strokeColor=none;fillColor=none;fontSize=18;movable=1;rotatable=1;deletable=1;editable=1;locked=0;connectable=1;" vertex="1" parent="1">
          <mxGeometry x="800" y="415" width="40" height="30" as="geometry" />
        </mxCell>
        <mxCell id="9vm0sO92znZHTp-NA5ZQ-71" value="3" style="text;html=1;align=center;verticalAlign=middle;resizable=1;points=[];autosize=1;strokeColor=none;fillColor=none;fontSize=18;movable=1;rotatable=1;deletable=1;editable=1;locked=0;connectable=1;" vertex="1" parent="1">
          <mxGeometry x="945" y="410" width="30" height="40" as="geometry" />
        </mxCell>
        <mxCell id="Pi3_3-QVqJVyEyYOB8Ng-26" value="1" style="text;html=1;align=center;verticalAlign=middle;resizable=1;points=[];autosize=1;strokeColor=none;fillColor=none;fontSize=18;movable=1;rotatable=1;deletable=1;editable=1;locked=0;connectable=1;" vertex="1" parent="1">
          <mxGeometry x="400" y="340" width="60" height="40" as="geometry" />
        </mxCell>
        <mxCell id="Pi3_3-QVqJVyEyYOB8Ng-28" value="2" style="text;html=1;align=center;verticalAlign=middle;resizable=1;points=[];autosize=1;strokeColor=none;fillColor=none;fontSize=18;movable=1;rotatable=1;deletable=1;editable=1;locked=0;connectable=1;" vertex="1" parent="1">
          <mxGeometry x="630" y="340" width="60" height="40" as="geometry" />
        </mxCell>
        <mxCell id="Pi3_3-QVqJVyEyYOB8Ng-29" value="3" style="text;html=1;align=center;verticalAlign=middle;resizable=1;points=[];autosize=1;strokeColor=none;fillColor=none;fontSize=18;movable=1;rotatable=1;deletable=1;editable=1;locked=0;connectable=1;" vertex="1" parent="1">
          <mxGeometry x="860" y="340" width="60" height="40" as="geometry" />
        </mxCell>
        <mxCell id="Pi3_3-QVqJVyEyYOB8Ng-30" value="4" style="text;html=1;align=center;verticalAlign=middle;resizable=1;points=[];autosize=1;strokeColor=none;fillColor=none;fontSize=18;movable=1;rotatable=1;deletable=1;editable=1;locked=0;connectable=1;" vertex="1" parent="1">
          <mxGeometry x="1090" y="340" width="60" height="40" as="geometry" />
        </mxCell>
        <mxCell id="Pi3_3-QVqJVyEyYOB8Ng-35" value="Positions:" style="text;html=1;align=center;verticalAlign=middle;resizable=0;points=[];autosize=1;strokeColor=none;fillColor=none;fontSize=24;" vertex="1" parent="1">
          <mxGeometry x="190" y="580" width="130" height="40" as="geometry" />
        </mxCell>
        <mxCell id="N3LozhiwkIGTt_4D6fy--1" value="" style="rounded=0;whiteSpace=wrap;html=1;fillColor=#dae8fc;strokeColor=#6c8ebf;fontSize=24;" vertex="1" parent="1">
          <mxGeometry x="950" y="-10" width="290" height="220" as="geometry" />
        </mxCell>
        <mxCell id="N3LozhiwkIGTt_4D6fy--2" value="0" style="whiteSpace=wrap;html=1;aspect=fixed;fontSize=24;fillColor=#dae8fc;strokeColor=#6c8ebf;" vertex="1" parent="1">
          <mxGeometry x="1100" width="60" height="60" as="geometry" />
        </mxCell>
        <mxCell id="N3LozhiwkIGTt_4D6fy--3" value="7.7" style="whiteSpace=wrap;html=1;aspect=fixed;fontSize=24;" vertex="1" parent="1">
          <mxGeometry x="1170" width="60" height="60" as="geometry" />
        </mxCell>
        <mxCell id="N3LozhiwkIGTt_4D6fy--4" value="9.9" style="whiteSpace=wrap;html=1;aspect=fixed;fontSize=24;" vertex="1" parent="1">
          <mxGeometry x="1170" y="140" width="60" height="60" as="geometry" />
        </mxCell>
        <mxCell id="N3LozhiwkIGTt_4D6fy--5" value="0" style="whiteSpace=wrap;html=1;aspect=fixed;fontSize=24;fillColor=#dae8fc;strokeColor=#6c8ebf;" vertex="1" parent="1">
          <mxGeometry x="1170" y="70" width="60" height="60" as="geometry" />
        </mxCell>
        <mxCell id="N3LozhiwkIGTt_4D6fy--6" value="0" style="whiteSpace=wrap;html=1;aspect=fixed;fontSize=24;fillColor=#dae8fc;strokeColor=#6c8ebf;" vertex="1" parent="1">
          <mxGeometry x="1029" y="140" width="60" height="60" as="geometry" />
        </mxCell>
        <mxCell id="N3LozhiwkIGTt_4D6fy--7" value="0" style="whiteSpace=wrap;html=1;aspect=fixed;fontSize=24;fillColor=#dae8fc;strokeColor=#6c8ebf;" vertex="1" parent="1">
          <mxGeometry x="1100" y="140" width="60" height="60" as="geometry" />
        </mxCell>
        <mxCell id="N3LozhiwkIGTt_4D6fy--8" value="0" style="whiteSpace=wrap;html=1;aspect=fixed;fontSize=24;fillColor=#dae8fc;strokeColor=#6c8ebf;" vertex="1" parent="1">
          <mxGeometry x="1030" width="60" height="60" as="geometry" />
        </mxCell>
        <mxCell id="N3LozhiwkIGTt_4D6fy--9" value="0" style="whiteSpace=wrap;html=1;aspect=fixed;fontSize=24;fillColor=#dae8fc;strokeColor=#6c8ebf;" vertex="1" parent="1">
          <mxGeometry x="960" width="60" height="60" as="geometry" />
        </mxCell>
        <mxCell id="N3LozhiwkIGTt_4D6fy--10" value="&lt;span style=&quot;color: rgb(0, 0, 0); font-family: Helvetica; font-size: 24px; font-style: normal; font-variant-ligatures: normal; font-variant-caps: normal; font-weight: 400; letter-spacing: normal; orphans: 2; text-align: center; text-indent: 0px; text-transform: none; widows: 2; word-spacing: 0px; -webkit-text-stroke-width: 0px; background-color: rgb(251, 251, 251); text-decoration-thickness: initial; text-decoration-style: initial; text-decoration-color: initial; float: none; display: inline !important;&quot;&gt;3.3&lt;/span&gt;" style="whiteSpace=wrap;html=1;aspect=fixed;fontSize=24;" vertex="1" parent="1">
          <mxGeometry x="960" y="140" width="60" height="60" as="geometry" />
        </mxCell>
        <mxCell id="N3LozhiwkIGTt_4D6fy--11" value="&lt;span style=&quot;color: rgb(0, 0, 0); font-family: Helvetica; font-size: 24px; font-style: normal; font-variant-ligatures: normal; font-variant-caps: normal; font-weight: 400; letter-spacing: normal; orphans: 2; text-align: center; text-indent: 0px; text-transform: none; widows: 2; word-spacing: 0px; -webkit-text-stroke-width: 0px; text-decoration-thickness: initial; text-decoration-style: initial; text-decoration-color: initial; float: none; display: inline !important;&quot;&gt;0&lt;/span&gt;" style="whiteSpace=wrap;html=1;aspect=fixed;fontSize=24;fillColor=#dae8fc;strokeColor=#6c8ebf;labelBackgroundColor=none;" vertex="1" parent="1">
          <mxGeometry x="960" y="70" width="60" height="60" as="geometry" />
        </mxCell>
        <mxCell id="N3LozhiwkIGTt_4D6fy--12" value="&lt;span style=&quot;color: rgb(0, 0, 0); font-family: Helvetica; font-size: 24px; font-style: normal; font-variant-ligatures: normal; font-variant-caps: normal; font-weight: 400; letter-spacing: normal; orphans: 2; text-align: center; text-indent: 0px; text-transform: none; widows: 2; word-spacing: 0px; -webkit-text-stroke-width: 0px; text-decoration-thickness: initial; text-decoration-style: initial; text-decoration-color: initial; float: none; display: inline !important;&quot;&gt;0&lt;/span&gt;" style="whiteSpace=wrap;html=1;aspect=fixed;fontSize=24;fillColor=#dae8fc;strokeColor=#6c8ebf;labelBackgroundColor=none;" vertex="1" parent="1">
          <mxGeometry x="1100" y="70" width="60" height="60" as="geometry" />
        </mxCell>
        <mxCell id="N3LozhiwkIGTt_4D6fy--13" value="&lt;span style=&quot;color: rgb(0, 0, 0); font-family: Helvetica; font-size: 24px; font-style: normal; font-variant-ligatures: normal; font-variant-caps: normal; font-weight: 400; letter-spacing: normal; orphans: 2; text-align: center; text-indent: 0px; text-transform: none; widows: 2; word-spacing: 0px; -webkit-text-stroke-width: 0px; background-color: rgb(251, 251, 251); text-decoration-thickness: initial; text-decoration-style: initial; text-decoration-color: initial; float: none; display: inline !important;&quot;&gt;6.6&lt;/span&gt;" style="whiteSpace=wrap;html=1;aspect=fixed;fontSize=24;" vertex="1" parent="1">
          <mxGeometry x="1030" y="70" width="60" height="60" as="geometry" />
        </mxCell>
        <mxCell id="N3LozhiwkIGTt_4D6fy--14" value="&amp;nbsp;j&amp;nbsp;" style="shape=crossbar;whiteSpace=wrap;html=1;rounded=1;labelBackgroundColor=#FFFFFF;fontSize=25;container=0;" vertex="1" parent="1">
          <mxGeometry x="950" y="220" width="290" height="30" as="geometry" />
        </mxCell>
        <mxCell id="N3LozhiwkIGTt_4D6fy--15" value="i" style="shape=crossbar;whiteSpace=wrap;html=1;rounded=1;direction=south;labelBackgroundColor=#FFFFFF;fontSize=24;" vertex="1" parent="1">
          <mxGeometry x="920" y="-10" width="20" height="220" as="geometry" />
        </mxCell>
        <mxCell id="N3LozhiwkIGTt_4D6fy--16" value="The Matrix:" style="whiteSpace=wrap;html=1;fontSize=24;container=0;" vertex="1" parent="1">
          <mxGeometry x="660" y="-10" width="250" height="80" as="geometry" />
        </mxCell>
      </root>
    </mxGraphModel>
  </diagram>
  <diagram id="XI40txSiTQmRqPujqo56" name="The Tensor">
    <mxGraphModel dx="1366" dy="864" grid="1" gridSize="10" guides="1" tooltips="1" connect="1" arrows="1" fold="1" page="1" pageScale="1" pageWidth="1100" pageHeight="850" math="0" shadow="0">
      <root>
        <mxCell id="0" />
        <mxCell id="1" parent="0" />
        <mxCell id="42zDDTtZVOCj7faGmap_-20" value="" style="group" vertex="1" connectable="0" parent="1">
          <mxGeometry x="400" y="160" width="370" height="240" as="geometry" />
        </mxCell>
        <mxCell id="42zDDTtZVOCj7faGmap_-1" value="" style="rounded=0;whiteSpace=wrap;html=1;fillColor=#dae8fc;strokeColor=#6c8ebf;fontSize=24;container=0;" vertex="1" parent="42zDDTtZVOCj7faGmap_-20">
          <mxGeometry width="370" height="240" as="geometry" />
        </mxCell>
        <mxCell id="42zDDTtZVOCj7faGmap_-4" value="0" style="whiteSpace=wrap;html=1;fontSize=24;fillColor=#dae8fc;strokeColor=#6c8ebf;container=0;" vertex="1" parent="42zDDTtZVOCj7faGmap_-20">
          <mxGeometry x="100" y="10" width="80" height="220" as="geometry" />
        </mxCell>
        <mxCell id="42zDDTtZVOCj7faGmap_-7" value="" style="rounded=0;whiteSpace=wrap;html=1;fontSize=24;container=0;" vertex="1" parent="42zDDTtZVOCj7faGmap_-20">
          <mxGeometry x="280" y="10" width="80" height="220" as="geometry" />
        </mxCell>
        <mxCell id="42zDDTtZVOCj7faGmap_-8" value="&lt;span style=&quot;color: rgb(0, 0, 0); font-family: Helvetica; font-size: 24px; font-style: normal; font-variant-ligatures: normal; font-variant-caps: normal; font-weight: 400; letter-spacing: normal; orphans: 2; text-align: center; text-indent: 0px; text-transform: none; widows: 2; word-spacing: 0px; -webkit-text-stroke-width: 0px; background-color: rgb(251, 251, 251); text-decoration-thickness: initial; text-decoration-style: initial; text-decoration-color: initial; float: none; display: inline !important;&quot;&gt;13.3&lt;/span&gt;" style="whiteSpace=wrap;html=1;aspect=fixed;fontSize=24;container=0;" vertex="1" parent="42zDDTtZVOCj7faGmap_-20">
          <mxGeometry x="290" y="20" width="60" height="60" as="geometry" />
        </mxCell>
        <mxCell id="42zDDTtZVOCj7faGmap_-9" value="&lt;span style=&quot;color: rgb(0, 0, 0); font-family: Helvetica; font-size: 24px; font-style: normal; font-variant-ligatures: normal; font-variant-caps: normal; font-weight: 400; letter-spacing: normal; orphans: 2; text-align: center; text-indent: 0px; text-transform: none; widows: 2; word-spacing: 0px; -webkit-text-stroke-width: 0px; background-color: rgb(251, 251, 251); text-decoration-thickness: initial; text-decoration-style: initial; text-decoration-color: initial; float: none; display: inline !important;&quot;&gt;14.4&lt;/span&gt;" style="whiteSpace=wrap;html=1;aspect=fixed;fontSize=24;container=0;" vertex="1" parent="42zDDTtZVOCj7faGmap_-20">
          <mxGeometry x="290" y="90" width="60" height="60" as="geometry" />
        </mxCell>
        <mxCell id="42zDDTtZVOCj7faGmap_-10" value="&lt;span style=&quot;color: rgb(0, 0, 0); font-family: Helvetica; font-size: 24px; font-style: normal; font-variant-ligatures: normal; font-variant-caps: normal; font-weight: 400; letter-spacing: normal; orphans: 2; text-align: center; text-indent: 0px; text-transform: none; widows: 2; word-spacing: 0px; -webkit-text-stroke-width: 0px; background-color: rgb(251, 251, 251); text-decoration-thickness: initial; text-decoration-style: initial; text-decoration-color: initial; float: none; display: inline !important;&quot;&gt;15.5&lt;/span&gt;" style="whiteSpace=wrap;html=1;aspect=fixed;fontSize=24;container=0;" vertex="1" parent="42zDDTtZVOCj7faGmap_-20">
          <mxGeometry x="290" y="160" width="60" height="60" as="geometry" />
        </mxCell>
        <mxCell id="42zDDTtZVOCj7faGmap_-11" value="0" style="whiteSpace=wrap;html=1;fontSize=24;fillColor=#dae8fc;strokeColor=#6c8ebf;container=0;" vertex="1" parent="42zDDTtZVOCj7faGmap_-20">
          <mxGeometry x="190" y="10" width="80" height="220" as="geometry" />
        </mxCell>
        <mxCell id="42zDDTtZVOCj7faGmap_-15" value="0" style="whiteSpace=wrap;html=1;fontSize=24;fillColor=#dae8fc;strokeColor=#6c8ebf;container=0;" vertex="1" parent="42zDDTtZVOCj7faGmap_-20">
          <mxGeometry x="10" y="10" width="80" height="220" as="geometry" />
        </mxCell>
        <mxCell id="42zDDTtZVOCj7faGmap_-19" value="0" style="rounded=0;whiteSpace=wrap;html=1;fillColor=#dae8fc;strokeColor=#6c8ebf;fontSize=24;container=0;" vertex="1" parent="1">
          <mxGeometry x="320" y="220" width="370" height="240" as="geometry" />
        </mxCell>
        <mxCell id="42zDDTtZVOCj7faGmap_-18" value="" style="group" vertex="1" connectable="0" parent="1">
          <mxGeometry x="160" y="340" width="450" height="240" as="geometry" />
        </mxCell>
        <mxCell id="w2u0fDrHi0UjxcfbACK5-1" value="0" style="rounded=0;whiteSpace=wrap;html=1;fillColor=#dae8fc;strokeColor=#6c8ebf;fontSize=24;container=0;" vertex="1" parent="42zDDTtZVOCj7faGmap_-18">
          <mxGeometry x="80" y="-60" width="370" height="240" as="geometry" />
        </mxCell>
        <mxCell id="G9290JUFNTlKNkV2tIdt-17" value="" style="rounded=0;whiteSpace=wrap;html=1;fillColor=#dae8fc;strokeColor=#6c8ebf;fontSize=24;container=0;" vertex="1" parent="42zDDTtZVOCj7faGmap_-18">
          <mxGeometry width="370" height="240" as="geometry" />
        </mxCell>
        <mxCell id="G9290JUFNTlKNkV2tIdt-22" value="" style="rounded=0;whiteSpace=wrap;html=1;fontSize=24;container=0;" vertex="1" parent="42zDDTtZVOCj7faGmap_-18">
          <mxGeometry x="10" y="10" width="80" height="220" as="geometry" />
        </mxCell>
        <mxCell id="G9290JUFNTlKNkV2tIdt-23" value="&lt;span style=&quot;color: rgb(0, 0, 0); font-family: Helvetica; font-size: 24px; font-style: normal; font-variant-ligatures: normal; font-variant-caps: normal; font-weight: 400; letter-spacing: normal; orphans: 2; text-align: center; text-indent: 0px; text-transform: none; widows: 2; word-spacing: 0px; -webkit-text-stroke-width: 0px; background-color: rgb(251, 251, 251); text-decoration-thickness: initial; text-decoration-style: initial; text-decoration-color: initial; float: none; display: inline !important;&quot;&gt;7.7&lt;/span&gt;" style="whiteSpace=wrap;html=1;aspect=fixed;fontSize=24;container=0;" vertex="1" parent="42zDDTtZVOCj7faGmap_-18">
          <mxGeometry x="20" y="20" width="60" height="60" as="geometry" />
        </mxCell>
        <mxCell id="G9290JUFNTlKNkV2tIdt-24" value="0" style="whiteSpace=wrap;html=1;fontSize=24;fillColor=#dae8fc;strokeColor=#6c8ebf;container=0;" vertex="1" parent="42zDDTtZVOCj7faGmap_-18">
          <mxGeometry x="100" y="10" width="80" height="220" as="geometry" />
        </mxCell>
        <mxCell id="G9290JUFNTlKNkV2tIdt-25" value="&lt;span style=&quot;color: rgb(0, 0, 0); font-family: Helvetica; font-size: 24px; font-style: normal; font-variant-ligatures: normal; font-variant-caps: normal; font-weight: 400; letter-spacing: normal; orphans: 2; text-align: center; text-indent: 0px; text-transform: none; widows: 2; word-spacing: 0px; -webkit-text-stroke-width: 0px; background-color: rgb(251, 251, 251); text-decoration-thickness: initial; text-decoration-style: initial; text-decoration-color: initial; float: none; display: inline !important;&quot;&gt;8.8&lt;/span&gt;" style="whiteSpace=wrap;html=1;aspect=fixed;fontSize=24;container=0;" vertex="1" parent="42zDDTtZVOCj7faGmap_-18">
          <mxGeometry x="20" y="90" width="60" height="60" as="geometry" />
        </mxCell>
        <mxCell id="G9290JUFNTlKNkV2tIdt-26" value="&lt;span style=&quot;color: rgb(0, 0, 0); font-family: Helvetica; font-size: 24px; font-style: normal; font-variant-ligatures: normal; font-variant-caps: normal; font-weight: 400; letter-spacing: normal; orphans: 2; text-align: center; text-indent: 0px; text-transform: none; widows: 2; word-spacing: 0px; -webkit-text-stroke-width: 0px; background-color: rgb(251, 251, 251); text-decoration-thickness: initial; text-decoration-style: initial; text-decoration-color: initial; float: none; display: inline !important;&quot;&gt;9.9&lt;/span&gt;" style="whiteSpace=wrap;html=1;aspect=fixed;fontSize=24;container=0;" vertex="1" parent="42zDDTtZVOCj7faGmap_-18">
          <mxGeometry x="20" y="160" width="60" height="60" as="geometry" />
        </mxCell>
        <mxCell id="G9290JUFNTlKNkV2tIdt-27" value="" style="rounded=0;whiteSpace=wrap;html=1;fontSize=24;container=0;" vertex="1" parent="42zDDTtZVOCj7faGmap_-18">
          <mxGeometry x="280" y="10" width="80" height="220" as="geometry" />
        </mxCell>
        <mxCell id="G9290JUFNTlKNkV2tIdt-28" value="&lt;span style=&quot;color: rgb(0, 0, 0); font-family: Helvetica; font-size: 24px; font-style: normal; font-variant-ligatures: normal; font-variant-caps: normal; font-weight: 400; letter-spacing: normal; orphans: 2; text-align: center; text-indent: 0px; text-transform: none; widows: 2; word-spacing: 0px; -webkit-text-stroke-width: 0px; background-color: rgb(251, 251, 251); text-decoration-thickness: initial; text-decoration-style: initial; text-decoration-color: initial; float: none; display: inline !important;&quot;&gt;10.0&lt;/span&gt;" style="whiteSpace=wrap;html=1;aspect=fixed;fontSize=24;container=0;" vertex="1" parent="42zDDTtZVOCj7faGmap_-18">
          <mxGeometry x="290" y="20" width="60" height="60" as="geometry" />
        </mxCell>
        <mxCell id="G9290JUFNTlKNkV2tIdt-29" value="&lt;span style=&quot;color: rgb(0, 0, 0); font-family: Helvetica; font-size: 24px; font-style: normal; font-variant-ligatures: normal; font-variant-caps: normal; font-weight: 400; letter-spacing: normal; orphans: 2; text-align: center; text-indent: 0px; text-transform: none; widows: 2; word-spacing: 0px; -webkit-text-stroke-width: 0px; background-color: rgb(251, 251, 251); text-decoration-thickness: initial; text-decoration-style: initial; text-decoration-color: initial; float: none; display: inline !important;&quot;&gt;11.1&lt;/span&gt;" style="whiteSpace=wrap;html=1;aspect=fixed;fontSize=24;container=0;" vertex="1" parent="42zDDTtZVOCj7faGmap_-18">
          <mxGeometry x="290" y="90" width="60" height="60" as="geometry" />
        </mxCell>
        <mxCell id="G9290JUFNTlKNkV2tIdt-30" value="&lt;span style=&quot;color: rgb(0, 0, 0); font-family: Helvetica; font-size: 24px; font-style: normal; font-variant-ligatures: normal; font-variant-caps: normal; font-weight: 400; letter-spacing: normal; orphans: 2; text-align: center; text-indent: 0px; text-transform: none; widows: 2; word-spacing: 0px; -webkit-text-stroke-width: 0px; background-color: rgb(251, 251, 251); text-decoration-thickness: initial; text-decoration-style: initial; text-decoration-color: initial; float: none; display: inline !important;&quot;&gt;12.2&lt;/span&gt;" style="whiteSpace=wrap;html=1;aspect=fixed;fontSize=24;container=0;" vertex="1" parent="42zDDTtZVOCj7faGmap_-18">
          <mxGeometry x="290" y="160" width="60" height="60" as="geometry" />
        </mxCell>
        <mxCell id="G9290JUFNTlKNkV2tIdt-31" value="0" style="whiteSpace=wrap;html=1;fontSize=24;fillColor=#dae8fc;strokeColor=#6c8ebf;container=0;" vertex="1" parent="42zDDTtZVOCj7faGmap_-18">
          <mxGeometry x="190" y="10" width="80" height="220" as="geometry" />
        </mxCell>
        <mxCell id="42zDDTtZVOCj7faGmap_-16" value="" style="group" vertex="1" connectable="0" parent="1">
          <mxGeometry x="80" y="400" width="370" height="240" as="geometry" />
        </mxCell>
        <mxCell id="G9290JUFNTlKNkV2tIdt-1" value="" style="rounded=0;whiteSpace=wrap;html=1;fillColor=#dae8fc;strokeColor=#6c8ebf;fontSize=24;container=0;" vertex="1" parent="42zDDTtZVOCj7faGmap_-16">
          <mxGeometry width="370" height="240" as="geometry" />
        </mxCell>
        <mxCell id="G9290JUFNTlKNkV2tIdt-6" value="" style="rounded=0;whiteSpace=wrap;html=1;fontSize=24;container=0;" vertex="1" parent="42zDDTtZVOCj7faGmap_-16">
          <mxGeometry x="10" y="10" width="80" height="220" as="geometry" />
        </mxCell>
        <mxCell id="G9290JUFNTlKNkV2tIdt-7" value="&lt;span style=&quot;color: rgb(0, 0, 0); font-family: Helvetica; font-size: 24px; font-style: normal; font-variant-ligatures: normal; font-variant-caps: normal; font-weight: 400; letter-spacing: normal; orphans: 2; text-align: center; text-indent: 0px; text-transform: none; widows: 2; word-spacing: 0px; -webkit-text-stroke-width: 0px; background-color: rgb(251, 251, 251); text-decoration-thickness: initial; text-decoration-style: initial; text-decoration-color: initial; float: none; display: inline !important;&quot;&gt;1.1&lt;/span&gt;" style="whiteSpace=wrap;html=1;aspect=fixed;fontSize=24;container=0;" vertex="1" parent="42zDDTtZVOCj7faGmap_-16">
          <mxGeometry x="20" y="20" width="60" height="60" as="geometry" />
        </mxCell>
        <mxCell id="G9290JUFNTlKNkV2tIdt-8" value="0" style="whiteSpace=wrap;html=1;fontSize=24;fillColor=#dae8fc;strokeColor=#6c8ebf;container=0;" vertex="1" parent="42zDDTtZVOCj7faGmap_-16">
          <mxGeometry x="100" y="10" width="80" height="220" as="geometry" />
        </mxCell>
        <mxCell id="G9290JUFNTlKNkV2tIdt-9" value="&lt;span style=&quot;color: rgb(0, 0, 0); font-family: Helvetica; font-size: 24px; font-style: normal; font-variant-ligatures: normal; font-variant-caps: normal; font-weight: 400; letter-spacing: normal; orphans: 2; text-align: center; text-indent: 0px; text-transform: none; widows: 2; word-spacing: 0px; -webkit-text-stroke-width: 0px; background-color: rgb(251, 251, 251); text-decoration-thickness: initial; text-decoration-style: initial; text-decoration-color: initial; float: none; display: inline !important;&quot;&gt;2.2&lt;/span&gt;" style="whiteSpace=wrap;html=1;aspect=fixed;fontSize=24;container=0;" vertex="1" parent="42zDDTtZVOCj7faGmap_-16">
          <mxGeometry x="20" y="90" width="60" height="60" as="geometry" />
        </mxCell>
        <mxCell id="G9290JUFNTlKNkV2tIdt-10" value="&lt;span style=&quot;color: rgb(0, 0, 0); font-family: Helvetica; font-size: 24px; font-style: normal; font-variant-ligatures: normal; font-variant-caps: normal; font-weight: 400; letter-spacing: normal; orphans: 2; text-align: center; text-indent: 0px; text-transform: none; widows: 2; word-spacing: 0px; -webkit-text-stroke-width: 0px; background-color: rgb(251, 251, 251); text-decoration-thickness: initial; text-decoration-style: initial; text-decoration-color: initial; float: none; display: inline !important;&quot;&gt;3.3&lt;/span&gt;" style="whiteSpace=wrap;html=1;aspect=fixed;fontSize=24;container=0;" vertex="1" parent="42zDDTtZVOCj7faGmap_-16">
          <mxGeometry x="20" y="160" width="60" height="60" as="geometry" />
        </mxCell>
        <mxCell id="G9290JUFNTlKNkV2tIdt-11" value="" style="rounded=0;whiteSpace=wrap;html=1;fontSize=24;container=0;" vertex="1" parent="42zDDTtZVOCj7faGmap_-16">
          <mxGeometry x="190" y="10" width="80" height="220" as="geometry" />
        </mxCell>
        <mxCell id="G9290JUFNTlKNkV2tIdt-12" value="&lt;span style=&quot;color: rgb(0, 0, 0); font-family: Helvetica; font-size: 24px; font-style: normal; font-variant-ligatures: normal; font-variant-caps: normal; font-weight: 400; letter-spacing: normal; orphans: 2; text-align: center; text-indent: 0px; text-transform: none; widows: 2; word-spacing: 0px; -webkit-text-stroke-width: 0px; background-color: rgb(251, 251, 251); text-decoration-thickness: initial; text-decoration-style: initial; text-decoration-color: initial; float: none; display: inline !important;&quot;&gt;4.4&lt;/span&gt;" style="whiteSpace=wrap;html=1;aspect=fixed;fontSize=24;container=0;" vertex="1" parent="42zDDTtZVOCj7faGmap_-16">
          <mxGeometry x="200" y="20" width="60" height="60" as="geometry" />
        </mxCell>
        <mxCell id="G9290JUFNTlKNkV2tIdt-13" value="&lt;span style=&quot;color: rgb(0, 0, 0); font-family: Helvetica; font-size: 24px; font-style: normal; font-variant-ligatures: normal; font-variant-caps: normal; font-weight: 400; letter-spacing: normal; orphans: 2; text-align: center; text-indent: 0px; text-transform: none; widows: 2; word-spacing: 0px; -webkit-text-stroke-width: 0px; background-color: rgb(251, 251, 251); text-decoration-thickness: initial; text-decoration-style: initial; text-decoration-color: initial; float: none; display: inline !important;&quot;&gt;5.5&lt;/span&gt;" style="whiteSpace=wrap;html=1;aspect=fixed;fontSize=24;container=0;" vertex="1" parent="42zDDTtZVOCj7faGmap_-16">
          <mxGeometry x="200" y="90" width="60" height="60" as="geometry" />
        </mxCell>
        <mxCell id="G9290JUFNTlKNkV2tIdt-14" value="&lt;span style=&quot;color: rgb(0, 0, 0); font-family: Helvetica; font-size: 24px; font-style: normal; font-variant-ligatures: normal; font-variant-caps: normal; font-weight: 400; letter-spacing: normal; orphans: 2; text-align: center; text-indent: 0px; text-transform: none; widows: 2; word-spacing: 0px; -webkit-text-stroke-width: 0px; background-color: rgb(251, 251, 251); text-decoration-thickness: initial; text-decoration-style: initial; text-decoration-color: initial; float: none; display: inline !important;&quot;&gt;6.6&lt;/span&gt;" style="whiteSpace=wrap;html=1;aspect=fixed;fontSize=24;container=0;" vertex="1" parent="42zDDTtZVOCj7faGmap_-16">
          <mxGeometry x="200" y="160" width="60" height="60" as="geometry" />
        </mxCell>
        <mxCell id="G9290JUFNTlKNkV2tIdt-15" value="0" style="whiteSpace=wrap;html=1;fontSize=24;fillColor=#dae8fc;strokeColor=#6c8ebf;container=0;" vertex="1" parent="42zDDTtZVOCj7faGmap_-16">
          <mxGeometry x="280" y="10" width="80" height="220" as="geometry" />
        </mxCell>
        <mxCell id="m2UgM9-PEYH1RLsXzUVl-1" value="&lt;span style=&quot;color: rgb(0, 0, 0); font-family: Helvetica; font-size: 25px; font-style: normal; font-variant-ligatures: normal; font-variant-caps: normal; font-weight: 400; letter-spacing: normal; orphans: 2; text-align: center; text-indent: 0px; text-transform: none; widows: 2; word-spacing: 0px; -webkit-text-stroke-width: 0px; white-space: normal; background-color: rgb(255, 255, 255); text-decoration-thickness: initial; text-decoration-style: initial; text-decoration-color: initial; display: inline !important; float: none;&quot;&gt;&amp;nbsp;i&amp;nbsp;&lt;/span&gt;" style="shape=crossbar;whiteSpace=wrap;html=1;rounded=1;labelBackgroundColor=#dae8fc;fontSize=25;container=0;rotation=323;" vertex="1" parent="1">
          <mxGeometry x="20.7" y="233.07" width="406.98" height="30" as="geometry" />
        </mxCell>
        <mxCell id="6OZ62xBOnPMWi9m5-lXo-1" value="&lt;meta charset=&quot;utf-8&quot;&gt;&lt;span style=&quot;color: rgb(0, 0, 0); font-family: Helvetica; font-size: 25px; font-style: normal; font-variant-ligatures: normal; font-variant-caps: normal; font-weight: 400; letter-spacing: normal; orphans: 2; text-align: center; text-indent: 0px; text-transform: none; widows: 2; word-spacing: 0px; -webkit-text-stroke-width: 0px; white-space: normal; background-color: rgb(255, 255, 255); text-decoration-thickness: initial; text-decoration-style: initial; text-decoration-color: initial; display: inline !important; float: none;&quot;&gt;&amp;nbsp;j&amp;nbsp;&lt;/span&gt;" style="shape=crossbar;whiteSpace=wrap;html=1;rounded=1;labelBackgroundColor=#dae8fc;fontSize=25;container=0;" vertex="1" parent="1">
          <mxGeometry x="80" y="650" width="370" height="30" as="geometry" />
        </mxCell>
        <mxCell id="6OZ62xBOnPMWi9m5-lXo-2" value="k" style="shape=crossbar;whiteSpace=wrap;html=1;rounded=1;direction=south;labelBackgroundColor=#FFFFFF;fontSize=24;" vertex="1" parent="1">
          <mxGeometry x="50" y="400" width="20" height="240" as="geometry" />
        </mxCell>
      </root>
    </mxGraphModel>
  </diagram>
  <diagram id="YZsrNaStl75vcQEIcOn9" name="TheMatrix">
    <mxGraphModel dx="1687" dy="1067" grid="1" gridSize="10" guides="1" tooltips="1" connect="1" arrows="1" fold="1" page="1" pageScale="1" pageWidth="1100" pageHeight="850" math="0" shadow="0">
      <root>
        <mxCell id="0" />
        <mxCell id="1" parent="0" />
        <mxCell id="D5kkcIIGxoL-0FdRA2Ho-32" value="" style="rounded=0;whiteSpace=wrap;html=1;fillColor=#dae8fc;strokeColor=#6c8ebf;fontSize=24;" vertex="1" parent="1">
          <mxGeometry x="80" y="80" width="220" height="290" as="geometry" />
        </mxCell>
        <mxCell id="D5kkcIIGxoL-0FdRA2Ho-33" value="0" style="whiteSpace=wrap;html=1;aspect=fixed;fontSize=24;fillColor=#dae8fc;strokeColor=#6c8ebf;" vertex="1" parent="1">
          <mxGeometry x="159" y="300" width="60" height="60" as="geometry" />
        </mxCell>
        <mxCell id="D5kkcIIGxoL-0FdRA2Ho-34" value="7.7" style="whiteSpace=wrap;html=1;aspect=fixed;fontSize=24;" vertex="1" parent="1">
          <mxGeometry x="90" y="300" width="60" height="60" as="geometry" />
        </mxCell>
        <mxCell id="D5kkcIIGxoL-0FdRA2Ho-35" value="9.9" style="whiteSpace=wrap;html=1;aspect=fixed;fontSize=24;" vertex="1" parent="1">
          <mxGeometry x="230" y="300" width="60" height="60" as="geometry" />
        </mxCell>
        <mxCell id="D5kkcIIGxoL-0FdRA2Ho-36" value="0" style="whiteSpace=wrap;html=1;aspect=fixed;fontSize=24;fillColor=#dae8fc;strokeColor=#6c8ebf;" vertex="1" parent="1">
          <mxGeometry x="90" y="230" width="60" height="60" as="geometry" />
        </mxCell>
        <mxCell id="D5kkcIIGxoL-0FdRA2Ho-37" value="0" style="whiteSpace=wrap;html=1;aspect=fixed;fontSize=24;fillColor=#dae8fc;strokeColor=#6c8ebf;" vertex="1" parent="1">
          <mxGeometry x="159" y="230" width="60" height="60" as="geometry" />
        </mxCell>
        <mxCell id="D5kkcIIGxoL-0FdRA2Ho-38" value="0" style="whiteSpace=wrap;html=1;aspect=fixed;fontSize=24;fillColor=#dae8fc;strokeColor=#6c8ebf;" vertex="1" parent="1">
          <mxGeometry x="230" y="230" width="60" height="60" as="geometry" />
        </mxCell>
        <mxCell id="D5kkcIIGxoL-0FdRA2Ho-39" value="0" style="whiteSpace=wrap;html=1;aspect=fixed;fontSize=24;fillColor=#dae8fc;strokeColor=#6c8ebf;" vertex="1" parent="1">
          <mxGeometry x="160" y="90" width="60" height="60" as="geometry" />
        </mxCell>
        <mxCell id="D5kkcIIGxoL-0FdRA2Ho-40" value="0" style="whiteSpace=wrap;html=1;aspect=fixed;fontSize=24;fillColor=#dae8fc;strokeColor=#6c8ebf;" vertex="1" parent="1">
          <mxGeometry x="90" y="90" width="60" height="60" as="geometry" />
        </mxCell>
        <mxCell id="D5kkcIIGxoL-0FdRA2Ho-41" value="&lt;span style=&quot;color: rgb(0, 0, 0); font-family: Helvetica; font-size: 24px; font-style: normal; font-variant-ligatures: normal; font-variant-caps: normal; font-weight: 400; letter-spacing: normal; orphans: 2; text-align: center; text-indent: 0px; text-transform: none; widows: 2; word-spacing: 0px; -webkit-text-stroke-width: 0px; background-color: rgb(251, 251, 251); text-decoration-thickness: initial; text-decoration-style: initial; text-decoration-color: initial; float: none; display: inline !important;&quot;&gt;3.3&lt;/span&gt;" style="whiteSpace=wrap;html=1;aspect=fixed;fontSize=24;" vertex="1" parent="1">
          <mxGeometry x="230" y="90" width="60" height="60" as="geometry" />
        </mxCell>
        <mxCell id="D5kkcIIGxoL-0FdRA2Ho-42" value="&lt;span style=&quot;color: rgb(0, 0, 0); font-family: Helvetica; font-size: 24px; font-style: normal; font-variant-ligatures: normal; font-variant-caps: normal; font-weight: 400; letter-spacing: normal; orphans: 2; text-align: center; text-indent: 0px; text-transform: none; widows: 2; word-spacing: 0px; -webkit-text-stroke-width: 0px; text-decoration-thickness: initial; text-decoration-style: initial; text-decoration-color: initial; float: none; display: inline !important;&quot;&gt;0&lt;/span&gt;" style="whiteSpace=wrap;html=1;aspect=fixed;fontSize=24;fillColor=#dae8fc;strokeColor=#6c8ebf;labelBackgroundColor=none;" vertex="1" parent="1">
          <mxGeometry x="90" y="160" width="60" height="60" as="geometry" />
        </mxCell>
        <mxCell id="D5kkcIIGxoL-0FdRA2Ho-43" value="&lt;span style=&quot;color: rgb(0, 0, 0); font-family: Helvetica; font-size: 24px; font-style: normal; font-variant-ligatures: normal; font-variant-caps: normal; font-weight: 400; letter-spacing: normal; orphans: 2; text-align: center; text-indent: 0px; text-transform: none; widows: 2; word-spacing: 0px; -webkit-text-stroke-width: 0px; text-decoration-thickness: initial; text-decoration-style: initial; text-decoration-color: initial; float: none; display: inline !important;&quot;&gt;0&lt;/span&gt;" style="whiteSpace=wrap;html=1;aspect=fixed;fontSize=24;fillColor=#dae8fc;strokeColor=#6c8ebf;labelBackgroundColor=none;" vertex="1" parent="1">
          <mxGeometry x="230" y="160" width="60" height="60" as="geometry" />
        </mxCell>
        <mxCell id="D5kkcIIGxoL-0FdRA2Ho-44" value="&lt;span style=&quot;color: rgb(0, 0, 0); font-family: Helvetica; font-size: 24px; font-style: normal; font-variant-ligatures: normal; font-variant-caps: normal; font-weight: 400; letter-spacing: normal; orphans: 2; text-align: center; text-indent: 0px; text-transform: none; widows: 2; word-spacing: 0px; -webkit-text-stroke-width: 0px; background-color: rgb(251, 251, 251); text-decoration-thickness: initial; text-decoration-style: initial; text-decoration-color: initial; float: none; display: inline !important;&quot;&gt;6.6&lt;/span&gt;" style="whiteSpace=wrap;html=1;aspect=fixed;fontSize=24;" vertex="1" parent="1">
          <mxGeometry x="160" y="160" width="60" height="60" as="geometry" />
        </mxCell>
        <mxCell id="5Igpf_fgzjlYbB6tWjIW-1" value="&amp;nbsp;j&amp;nbsp;" style="shape=crossbar;whiteSpace=wrap;html=1;rounded=1;labelBackgroundColor=#FFFFFF;fontSize=25;container=0;" vertex="1" parent="1">
          <mxGeometry x="80" y="380" width="220" height="30" as="geometry" />
        </mxCell>
        <mxCell id="GOvx0lqjHC3dV9USwpIy-1" value="i" style="shape=crossbar;whiteSpace=wrap;html=1;rounded=1;direction=south;labelBackgroundColor=#FFFFFF;fontSize=24;" vertex="1" parent="1">
          <mxGeometry x="50" y="80" width="20" height="290" as="geometry" />
        </mxCell>
      </root>
    </mxGraphModel>
  </diagram>
</mxfile>
